<svg width="177" height="84" viewBox="0 0 177 84" fill="none" xmlns="http://www.w3.org/2000/svg">
<g id="Group 5">
<g id="Group">
<g id="Group_2">
<g id="Group_3">
<path id="Vector" d="M50.6668 52.8932C47.9415 52.8932 45.6421 52.2569 43.7685 50.9679C41.909 49.6872 40.5961 47.8925 39.8225 45.5839L45.2163 43.365C45.5711 44.7355 46.2382 45.7634 47.2034 46.4323C48.1686 47.0849 49.3325 47.4112 50.6952 47.4112C51.4333 47.4112 52.1288 47.3296 52.7959 47.1502C53.4772 46.9544 54.045 46.6444 54.4992 46.2039C54.9534 45.747 55.1805 45.1434 55.1805 44.3766C55.1805 43.3813 54.7547 42.6064 53.903 42.0598C53.0514 41.4969 51.9442 41.0646 50.5816 40.7546L47.5441 40.0693C46.1956 39.7675 44.9395 39.2862 43.7685 38.6336C42.6116 37.981 41.6819 37.1244 40.9864 36.0558C40.2838 34.9708 39.9361 33.6085 39.9361 31.9769C39.9361 30.4107 40.2483 29.0728 40.8729 27.9634C41.4974 26.8376 42.3278 25.9076 43.371 25.1898C44.4072 24.4719 45.5569 23.9416 46.806 23.5909C48.0551 23.2238 49.3041 23.0361 50.5532 23.0361C51.9159 23.0361 53.2217 23.2564 54.4708 23.6887C55.7341 24.1293 56.8696 24.7982 57.8774 25.7118C58.878 26.6092 59.6445 27.8002 60.1768 29.3012L54.8114 31.5201C54.4708 30.5657 53.8817 29.8233 53.0514 29.3012C52.2139 28.7791 51.2132 28.5181 50.0422 28.5181C48.8854 28.5181 47.9202 28.7628 47.1466 29.236C46.3873 29.7173 46.0111 30.4025 46.0111 31.2917C46.0111 32.0096 46.2737 32.6295 46.806 33.1516C47.3312 33.6574 48.0267 34 48.8783 34.1958L52.2565 34.9789C53.2785 35.2237 54.3076 35.5255 55.3508 35.8926C56.4083 36.2434 57.3806 36.7084 58.2748 37.2957C59.1619 37.8831 59.8787 38.6662 60.4323 39.6451C60.9788 40.624 61.2556 41.864 61.2556 43.365C61.2556 44.8905 60.9433 46.2528 60.3187 47.4438C59.7084 48.6185 58.8993 49.6219 57.8774 50.4459C56.8696 51.2535 55.7483 51.8653 54.4992 52.2732C53.2501 52.6811 51.9726 52.8932 50.6668 52.8932Z" fill="white"/>
</g>
</g>
</g>
<g id="Group_4">
<g id="Group_5">
<g id="Group_6">
<path id="Vector_2" d="M63.7538 52.3714V23.5586H69.6869V34.5551H80.0202V23.5586H85.9249V52.3714H80.0202V40.5592H69.6869V52.3714H63.7538Z" fill="white"/>
</g>
</g>
</g>
<g id="Group_7">
<g id="Group_8">
<g id="Group_9">
<path id="Vector_3" d="M101.888 52.8932C99.3326 52.8932 97.0758 52.2732 95.1312 51.0332C93.1795 49.7932 91.6465 48.0557 90.5323 45.8123C89.4323 43.5771 88.8858 40.9503 88.8858 37.9483C88.8858 34.9708 89.4323 32.3603 90.5323 30.117C91.6465 27.8818 93.1795 26.136 95.1312 24.8961C97.0758 23.6561 99.3326 23.0361 101.888 23.0361C104.457 23.0361 106.721 23.6561 108.672 24.8961C110.617 26.136 112.15 27.8818 113.271 30.117C114.385 32.3603 114.946 34.9708 114.946 37.9483C114.946 40.9503 114.385 43.5771 113.271 45.8123C112.15 48.0557 110.617 49.7932 108.672 51.0332C106.721 52.2732 104.457 52.8932 101.888 52.8932ZM101.888 47.2807C103.094 47.2807 104.215 46.9381 105.237 46.2365C106.274 45.5186 107.097 44.4745 107.707 43.104C108.332 41.7172 108.644 39.9959 108.644 37.9483C108.644 35.9252 108.332 34.2284 107.707 32.858C107.097 31.4712 106.274 30.427 105.237 29.7254C104.215 29.0075 103.094 28.6486 101.888 28.6486C100.674 28.6486 99.5597 29.0075 98.5378 29.7254C97.5158 30.427 96.6925 31.4712 96.068 32.858C95.4577 34.2284 95.1596 35.9252 95.1596 37.9483C95.1596 39.9959 95.4577 41.7172 96.068 43.104C96.6925 44.4745 97.5158 45.5186 98.5378 46.2365C99.5597 46.9381 100.674 47.2807 101.888 47.2807Z" fill="white"/>
</g>
</g>
</g>
<g id="Group_10">
<g id="Group_11">
<g id="Group_12">
<path id="Vector_4" d="M117.888 52.3714V23.5586H127.54C129.711 23.5586 131.656 23.8196 133.359 24.3417C135.077 24.8475 136.432 25.7775 137.419 27.148C138.398 28.5021 138.895 30.4355 138.895 32.9562C138.895 35.4606 138.398 37.394 137.419 38.7645C136.432 40.135 135.077 41.0812 133.359 41.6033C131.656 42.1091 129.711 42.3538 127.54 42.3538H123.821V52.3714H117.888ZM123.821 36.7087H127.738C128.647 36.7087 129.47 36.6108 130.208 36.4151C130.946 36.2193 131.528 35.8522 131.968 35.3056C132.422 34.7427 132.65 33.9596 132.65 32.9562C132.65 31.961 132.422 31.1942 131.968 30.6721C131.528 30.1337 130.946 29.7747 130.208 29.5953C129.47 29.3995 128.647 29.3016 127.738 29.3016H123.821V36.7087Z" fill="white"/>
</g>
</g>
</g>
<path id="Vector_5" d="M36.4265 35.5811L152.044 35.5811" stroke="white"/>
<g id="Clip path group">
<mask id="mask0_422_2012" style="mask-type:luminance" maskUnits="userSpaceOnUse" x="73" y="16" width="33" height="38">
<g id="ad43662cbc">
<path id="Vector_6" d="M73.1537 16.0439H105.516V53.6344H73.1537V16.0439Z" fill="white"/>
</g>
</mask>
<g mask="url(#mask0_422_2012)">
<g id="Group_13">
<path id="Vector_7" d="M105.474 33.7705L95.3604 34.0479C92.1809 33.224 90.7615 31.5516 90.066 27.8318L90.3428 16.0439H88.2491L88.5046 28.0439C87.7949 31.6169 86.3684 33.2403 83.2528 34.0479L73.1608 33.7705V34.9615V36.177L83.2102 35.8589C86.3968 36.6747 87.8304 38.3388 88.533 42.0261L88.2491 53.9036H90.3428L90.0944 41.9363C90.8041 38.3062 92.2377 36.6665 95.4029 35.8589L105.474 36.177V33.7705Z" fill="white"/>
</g>
</g>
</g>
<g id="Group_14">
<g id="Group_15">
<g id="Group_16">
<path id="Vector_8" d="M32.0148 80.6382L29.0908 77.4731C27.5366 78.6967 25.6701 79.3004 23.4984 79.3004C21.6815 79.3004 20.0705 78.868 18.6724 77.9952C17.2672 77.106 16.1742 75.866 15.3794 74.2753C14.5987 72.6682 14.2155 70.7838 14.2155 68.6302C14.2155 66.501 14.5987 64.6411 15.3794 63.0503C16.1742 61.4433 17.2672 60.1952 18.6724 59.2978C20.0705 58.4086 21.6815 57.96 23.4984 57.96C25.3294 57.96 26.9475 58.4086 28.3527 59.2978C29.7509 60.1952 30.8509 61.4433 31.6458 63.0503C32.4406 64.6411 32.8381 66.501 32.8381 68.6302C32.8381 69.8294 32.7032 70.9469 32.4406 71.9911C32.1922 73.019 31.8303 73.9408 31.3619 74.7647L34.2291 77.8973L32.0148 80.6382ZM23.4984 75.2868C24.5203 75.2868 25.4146 74.9768 26.1952 74.3405L22.3345 70.1638L24.5771 67.4555L28.0405 71.208C28.1327 70.8164 28.1966 70.4167 28.2392 70.0007C28.296 69.5683 28.3244 69.1115 28.3244 68.6302C28.3244 67.1781 28.1043 65.9545 27.6714 64.9755C27.2314 63.9966 26.6495 63.2624 25.9114 62.7567C25.1733 62.2346 24.3642 61.9735 23.4984 61.9735C22.6467 61.9735 21.8519 62.2346 21.1138 62.7567C20.3757 63.2624 19.7866 63.9966 19.3537 64.9755C18.9137 65.9545 18.7008 67.1781 18.7008 68.6302C18.7008 70.0904 18.9137 71.3222 19.3537 72.3174C19.7866 73.2964 20.3757 74.0387 21.1138 74.5363C21.8519 75.0421 22.6467 75.2868 23.4984 75.2868Z" fill="white"/>
</g>
</g>
</g>
<g id="Group_17">
<g id="Group_18">
<g id="Group_19">
<path id="Vector_9" d="M43.1445 79.2994C40.3199 79.2994 38.3257 78.5408 37.1546 77.0153C35.9978 75.4735 35.423 73.1159 35.423 69.9345V58.3506H39.6528V70.326C39.6528 71.3539 39.738 72.2431 39.9083 73.0017C40.0786 73.7441 40.4051 74.3233 40.9019 74.7312C41.4129 75.1227 42.1581 75.3185 43.1445 75.3185C44.1239 75.3185 44.862 75.1227 45.3588 74.7312C45.8485 74.3233 46.1821 73.7441 46.3524 73.0017C46.5227 72.2431 46.6079 71.3539 46.6079 70.326V58.3506H50.8377V69.9345C50.8377 73.1159 50.2416 75.4735 49.0493 77.0153C47.8712 78.5408 45.9053 79.2994 43.1445 79.2994Z" fill="white"/>
</g>
</g>
</g>
<g id="Group_20">
<g id="Group_21">
<g id="Group_22">
<path id="Vector_10" d="M53.2095 78.9405V58.3506H66.9777V62.6252H57.4393V66.2146H63.2589V70.4892H57.4393V74.6659H66.9777V78.9405H53.2095Z" fill="white"/>
</g>
</g>
</g>
<g id="Group_23">
<g id="Group_24">
<g id="Group_25">
<path id="Vector_11" d="M68.7692 78.9405V58.3506H76.6043C77.9101 58.3506 79.0599 58.5056 80.0676 58.8074C81.0896 59.0929 81.8987 59.6232 82.509 60.4063C83.1123 61.1731 83.4174 62.2663 83.4174 63.702C83.4174 64.6646 83.2258 65.4967 82.8497 66.2146C82.4877 66.9324 81.9696 67.5361 81.2883 68.0093C82.1187 68.3356 82.8 68.874 83.3323 69.6082C83.8575 70.3505 84.1271 71.3376 84.1271 72.5775C84.1271 74.1275 83.822 75.3675 83.2187 76.2974C82.6297 77.2111 81.7851 77.8882 80.6922 78.3205C79.5921 78.7366 78.3218 78.9405 76.8882 78.9405H68.7692ZM72.999 66.4756H76.7178C77.4346 66.4756 77.9953 66.2961 78.3927 65.9209C78.8044 65.5293 79.0173 65.0235 79.0173 64.3873C79.0173 63.7346 78.8044 63.237 78.3927 62.8862C77.9953 62.5191 77.4346 62.3315 76.7178 62.3315H72.999V66.4756ZM72.999 74.8943H76.9166C77.825 74.8943 78.5063 74.6904 78.9605 74.2743C79.4147 73.842 79.6418 73.2628 79.6418 72.5449C79.6418 71.827 79.4147 71.2723 78.9605 70.8807C78.5063 70.4729 77.825 70.2608 76.9166 70.2608H72.999V74.8943Z" fill="white"/>
</g>
</g>
</g>
<g id="Group_26">
<g id="Group_27">
<g id="Group_28">
<path id="Vector_12" d="M85.9119 78.9405V58.3506H92.7818C94.3502 58.3506 95.7413 58.5301 96.9548 58.8727C98.1826 59.2235 99.1478 59.8679 99.8504 60.7979C100.567 61.7115 100.929 63.0168 100.929 64.7136C100.929 65.4967 100.794 66.2798 100.532 67.063C100.283 67.8298 99.8504 68.5313 99.2259 69.184C98.6156 69.8202 97.7497 70.3097 96.6142 70.6523L101.809 78.9405H96.8981L92.0437 71.1744H90.1417V78.9405H85.9119ZM90.1417 67.0956H92.9237C93.9244 67.0956 94.7548 66.9569 95.4219 66.6714C96.1032 66.3696 96.4439 65.7414 96.4439 64.7788C96.4439 63.8244 96.1032 63.1962 95.4219 62.8862C94.7548 62.5844 93.9244 62.4294 92.9237 62.4294H90.1417V67.0956Z" fill="white"/>
</g>
</g>
</g>
<g id="Group_29">
<g id="Group_30">
<g id="Group_31">
<path id="Vector_13" d="M102.407 78.9405L109.191 58.3506H113.847L120.632 78.9405H116.033L114.954 75.2859H108.084L107.005 78.9405H102.407ZM109.248 71.3376H113.79L111.491 63.5062L109.248 71.3376Z" fill="white"/>
</g>
</g>
</g>
<g id="Group_32">
<g id="Group_33">
<g id="Group_34">
<path id="Vector_14" d="M121.968 78.9405V58.3506H127.844C129.32 58.3506 130.683 58.5301 131.932 58.8727C133.195 59.199 134.295 59.77 135.225 60.5695C136.169 61.3526 136.907 62.4131 137.439 63.7346C137.964 65.0643 138.234 66.6959 138.234 68.6292C138.234 70.6115 137.964 72.2675 137.439 73.5891C136.907 74.8943 136.169 75.9548 135.225 76.7543C134.295 77.5374 133.195 78.1084 131.932 78.451C130.683 78.7774 129.32 78.9405 127.844 78.9405H121.968ZM126.198 74.8291H127.929C128.703 74.8291 129.441 74.7638 130.143 74.6333C130.86 74.4864 131.492 74.2009 132.045 73.7849C132.613 73.3525 133.053 72.7325 133.38 71.9249C133.699 71.101 133.862 69.9997 133.862 68.6292C133.862 67.2832 133.699 66.1983 133.38 65.3662C133.053 64.5178 132.613 63.8896 132.045 63.4736C131.492 63.0657 130.86 62.7802 130.143 62.6252C129.441 62.4784 128.703 62.3968 127.929 62.3968H126.198V74.8291Z" fill="white"/>
</g>
</g>
</g>
<g id="Group_35">
<g id="Group_36">
<g id="Group_37">
<path id="Vector_15" d="M139.321 78.9405L146.106 58.3506H150.761L157.546 78.9405H152.947L151.868 75.2859H144.998L143.92 78.9405H139.321ZM146.162 71.3376H150.704L148.405 63.5062L146.162 71.3376Z" fill="white"/>
</g>
</g>
</g>
<g id="Clip path group_2">
<mask id="mask1_422_2012" style="mask-type:luminance" maskUnits="userSpaceOnUse" x="93" y="43" width="84" height="41">
<g id="47ae104990">
<path id="Vector_16" d="M93.3024 43.9062H177V83.2641H93.3024V43.9062Z" fill="white"/>
</g>
</mask>
<g mask="url(#mask1_422_2012)">
<g id="Group_38">
<g id="Clip path group_3">
<mask id="mask2_422_2012" style="mask-type:luminance" maskUnits="userSpaceOnUse" x="92" y="25" width="93" height="69">
<g id="eb4cff66a8">
<path id="Vector_17" d="M92.7161 48.7336L167.474 25.498L184.277 70.1857L109.52 93.4263L92.7161 48.7336Z" fill="white"/>
</g>
</mask>
<g mask="url(#mask2_422_2012)">
<g id="Group_39">
<g id="Clip path group_4">
<mask id="mask3_422_2012" style="mask-type:luminance" maskUnits="userSpaceOnUse" x="92" y="25" width="93" height="69">
<g id="b3c4a13a91">
<path id="Vector_18" d="M109.452 93.2378L184.21 69.9972L167.4 25.3096L92.6428 48.5451L109.452 93.2378Z" fill="white"/>
</g>
</mask>
<g mask="url(#mask3_422_2012)">
<g id="Group_40">
<path id="Vector_19" d="M134.661 83.0907C118.421 82.9934 103.133 74.0097 96.9213 59.4042C95.3598 55.7349 94.4917 51.9785 94.2437 48.2528H94.379C94.6214 51.9221 95.4951 55.6273 97.0566 59.2402C97.3948 60.0295 97.7612 60.7982 98.1558 61.5515C100.969 60.1883 103.889 58.9686 106.91 57.8976C106.025 54.7049 105.518 51.4558 105.354 48.2323H105.456C105.613 51.4404 106.132 54.6741 107.034 57.8514C109.52 56.9751 112.068 56.1962 114.683 55.5248C116.431 55.0738 118.184 54.6844 119.937 54.341C119.717 52.3014 119.582 50.2515 119.526 48.2067H119.582C119.638 50.2463 119.774 52.2962 119.993 54.3308C125.506 53.2648 131.025 52.7216 136.476 52.6755L136.549 45.2139L136.611 52.6755C141.932 52.6396 147.197 53.0701 152.338 53.9362C152.524 52.04 152.643 50.108 152.693 48.1503H152.75C152.699 50.108 152.581 52.0503 152.4 53.9464C156.538 54.6536 160.596 55.6376 164.537 56.8931C165.264 54.0643 165.709 51.1176 165.844 48.1298H165.952C165.816 51.1329 165.377 54.0899 164.661 56.9341C167.333 57.7848 169.954 58.7636 172.507 59.8552C174.204 56.1398 175.219 52.1732 175.467 48.1093H175.608C174.734 62.1818 165.016 75.173 149.616 80.5899C145.743 81.953 141.78 82.7371 137.84 82.9934C137.507 83.0241 137.169 83.0497 136.837 83.0651C136.583 83.0856 136.329 83.0907 136.076 83.0907C136.053 83.0856 136.036 83.0856 136.014 83.0856C135.833 83.0856 135.653 83.0907 135.478 83.0907C135.439 83.0907 135.405 83.0856 135.371 83.0856C135.134 83.0907 134.898 83.0907 134.661 83.0907ZM135.867 82.4758C135.969 82.4758 136.07 82.4706 136.171 82.4706L136.217 77.9711C133.669 78.0121 131.16 78.212 128.702 78.5605C130.907 80.9998 133.359 82.363 135.861 82.4758H135.867ZM136.848 82.445C136.91 82.445 136.972 82.4399 137.034 82.4348C138.742 82.2451 140.467 81.4713 142.152 80.0466C142.75 79.5393 143.325 78.9653 143.877 78.3298C141.656 78.0839 139.401 77.9609 137.113 77.9609C137.011 77.9609 136.916 77.966 136.814 77.966L136.848 82.445ZM132.857 82.3271C131.256 81.5943 129.712 80.3439 128.274 78.622C126.718 78.8526 125.179 79.1447 123.669 79.488C126.572 80.9998 129.672 81.9633 132.857 82.3271ZM139.971 82.117C142.186 81.7327 144.396 81.046 146.572 80.0364C147.242 79.7238 147.896 79.3855 148.533 79.0268C147.147 78.7603 145.737 78.5451 144.311 78.376C143.635 79.2164 142.919 79.9646 142.175 80.6001C141.448 81.2304 140.709 81.7327 139.971 82.117ZM128.494 82.0299C126.583 81.4559 124.723 80.6616 122.936 79.6572C122.226 79.8314 121.515 80.0159 120.811 80.2157C123.297 81.0408 125.867 81.6507 128.494 82.0299ZM144.666 81.4149C146.307 81.0511 147.941 80.5899 149.565 80.0313C150.021 79.8724 150.478 79.7033 150.929 79.529C150.377 79.4009 149.819 79.2779 149.261 79.1652C148.404 79.6879 147.519 80.1645 146.611 80.595C145.969 80.8973 145.315 81.1689 144.666 81.4149ZM120.033 79.9493C120.799 79.7238 121.572 79.5137 122.355 79.3138C120.292 78.089 118.342 76.5721 116.549 74.7989C115.146 75.2909 113.776 75.8239 112.429 76.3978C114.819 77.8174 117.372 79.0063 120.033 79.9493ZM151.707 79.2215C154.802 77.966 157.643 76.403 160.202 74.5785C158.877 74.1327 157.536 73.7176 156.177 73.3537C154.3 75.46 152.18 77.2998 149.841 78.8013C150.467 78.9346 151.093 79.0729 151.707 79.2215ZM123.032 79.1447C124.638 78.7654 126.273 78.4426 127.93 78.1915C126.713 76.6489 125.58 74.7579 124.559 72.5594C121.944 73.118 119.401 73.8252 116.938 74.6657C118.821 76.4491 120.867 77.9506 123.032 79.1447ZM149.165 78.663C151.617 77.1922 153.843 75.3678 155.811 73.2564C153.319 72.5953 150.766 72.0828 148.173 71.719C147.147 74.1019 145.969 76.2082 144.649 77.9404C146.171 78.1249 147.682 78.3657 149.165 78.663ZM128.33 78.1351C130.907 77.7559 133.539 77.5458 136.217 77.4996L136.284 71.0989C134.317 71.1757 132.333 71.3295 130.337 71.5806C128.449 71.8163 126.589 72.1289 124.768 72.5133C125.839 74.7374 127.045 76.6182 128.33 78.1351ZM144.244 77.8942C145.642 76.198 146.887 74.0968 147.964 71.6882C144.306 71.1809 140.557 70.9707 136.752 71.0886L136.803 77.4945C136.904 77.4945 137.006 77.4945 137.102 77.4945C139.525 77.4894 141.904 77.6278 144.244 77.8942ZM112.158 76.2338C113.533 75.6547 114.937 75.1166 116.369 74.6247C114.266 72.5184 112.383 70.0483 110.788 67.2553C108.556 68.0753 106.386 68.9875 104.278 69.997C106.611 72.3954 109.266 74.4812 112.158 76.2338ZM160.405 74.4351C162.857 72.667 165.038 70.6633 166.938 68.4801C165.027 67.6755 163.065 66.9478 161.07 66.297C159.728 68.8132 158.133 71.1399 156.307 73.2102C157.688 73.5792 159.058 73.9841 160.405 74.4351ZM116.758 74.4966C119.255 73.651 121.831 72.9489 124.48 72.3954C123.392 70.0022 122.434 67.2451 121.656 64.1702C117.981 64.9236 114.424 65.9331 111.002 67.1784C112.648 69.9612 114.593 72.4159 116.758 74.4966ZM155.94 73.1129C157.829 71.0579 159.475 68.7415 160.856 66.2304C157.592 65.1798 154.227 64.3393 150.777 63.7346C150.089 66.5686 149.238 69.213 148.229 71.5755C150.85 71.9393 153.426 72.4569 155.94 73.1129ZM124.689 72.3544C126.465 71.9854 128.268 71.6831 130.1 71.4576C132.175 71.1962 134.238 71.0374 136.29 70.9656L136.374 62.5816C134.689 62.6021 132.992 62.6789 131.284 62.8122C128.037 63.0633 124.858 63.5194 121.763 64.1497C122.569 67.2297 123.562 69.9817 124.689 72.3544ZM148.032 71.5498C149.074 69.1976 149.959 66.5584 150.67 63.7193C146.132 62.9249 141.453 62.5303 136.684 62.5764L136.752 70.9502C140.58 70.8375 144.351 71.0476 148.032 71.5498ZM104.029 69.7306C106.172 68.7261 108.376 67.8088 110.642 66.9991C109.334 64.6725 108.223 62.1255 107.35 59.3837C107.22 58.9635 107.096 58.5433 106.978 58.1231C103.979 59.2044 101.076 60.4394 98.2911 61.8129C99.8412 64.7237 101.78 67.3732 104.029 69.7306ZM167.107 68.2905C169.238 65.805 170.991 63.0838 172.344 60.2088C169.813 59.107 167.22 58.1179 164.576 57.2518C163.77 60.3728 162.62 63.3605 161.171 66.1176C163.189 66.7633 165.168 67.4911 167.107 68.2905ZM110.856 66.9222C114.306 65.6974 117.896 64.7032 121.6 63.9601C121.239 62.4996 120.912 60.9622 120.63 59.3632C120.354 57.7643 120.129 56.15 119.954 54.5255C118.308 54.8535 116.662 55.2276 115.022 55.6478C112.31 56.3448 109.672 57.1545 107.102 58.0769C107.214 58.4613 107.327 58.8405 107.451 59.2249C108.347 62.0025 109.497 64.5802 110.856 66.9222ZM160.957 66.0459C162.445 63.3042 163.623 60.3267 164.452 57.2109C160.529 55.9348 156.493 54.9201 152.372 54.1975C152.045 57.4722 151.521 60.629 150.811 63.5758C154.283 64.1805 157.671 65.0056 160.957 66.0459ZM121.707 63.9396C124.74 63.34 127.84 62.9044 131.014 62.6584C132.812 62.5201 134.599 62.4432 136.374 62.4227L136.47 52.8651C131.025 52.901 125.518 53.4391 120.016 54.5152C120.185 56.0885 120.411 57.6516 120.687 59.1992C120.98 60.8545 121.324 62.4381 121.707 63.9396ZM150.709 63.5604C151.436 60.6188 151.972 57.462 152.31 54.1873C147.18 53.2904 141.927 52.8343 136.611 52.8651L136.684 62.4176C141.465 62.3817 146.155 62.7763 150.709 63.5604Z" fill="white"/>
</g>
</g>
</g>
</g>
</g>
</g>
</g>
</g>
</g>
<g id="Clip path group_5">
<mask id="mask4_422_2012" style="mask-type:luminance" maskUnits="userSpaceOnUse" x="94" y="0" width="83" height="43">
<g id="bd6df738f4">
<path id="Vector_20" d="M94.6151 0H177V42.3118H94.6151V0Z" fill="white"/>
</g>
</mask>
<g mask="url(#mask4_422_2012)">
<g id="Group_41">
<g id="Clip path group_6">
<mask id="mask5_422_2012" style="mask-type:luminance" maskUnits="userSpaceOnUse" x="94" y="-11" width="91" height="74">
<g id="c75f7af5ea">
<path id="Vector_21" d="M110.556 -10.3506L184.18 14.5352L167.701 62.5987L94.077 37.713L110.556 -10.3506Z" fill="white"/>
</g>
</mask>
<g mask="url(#mask5_422_2012)">
<g id="Group_42">
<g id="Clip path group_7">
<mask id="mask6_422_2012" style="mask-type:luminance" maskUnits="userSpaceOnUse" x="94" y="-11" width="91" height="74">
<g id="f8415e9e5a">
<path id="Vector_22" d="M110.556 -10.3467L184.18 14.5391L167.701 62.6026L94.077 37.7169L110.556 -10.3467Z" fill="white"/>
</g>
</mask>
<g mask="url(#mask6_422_2012)">
<g id="Group_43">
<path id="Vector_23" d="M135.564 0.59906C119.467 0.725776 104.331 10.4718 98.1941 26.2892C96.6516 30.2614 95.7916 34.3273 95.553 38.3657H95.6861C95.9192 34.3879 96.7792 30.3771 98.3217 26.4655C98.6602 25.6115 99.0208 24.7796 99.4092 23.9642C102.2 25.4352 105.096 26.7464 108.093 27.9089C107.222 31.3633 106.722 34.8782 106.567 38.3712H106.667C106.817 34.8948 107.327 31.3963 108.22 27.9585C110.678 28.9006 113.208 29.7435 115.8 30.4653C117.536 30.9501 119.267 31.3688 121.004 31.7379C120.793 33.9472 120.666 36.1674 120.61 38.3767H120.666C120.721 36.1729 120.854 33.9527 121.065 31.7489C126.531 32.9004 131.996 33.4734 137.4 33.5174L137.489 41.5941L137.539 33.5174C142.81 33.5505 148.031 33.0822 153.119 32.1346C153.308 34.1841 153.43 36.2776 153.48 38.3987H153.535C153.485 36.2776 153.363 34.1786 153.18 32.1236C157.281 31.3523 161.303 30.2834 165.209 28.9171C165.936 31.9803 166.38 35.1647 166.519 38.4042H166.624C166.48 35.1537 166.047 31.9528 165.332 28.873C167.978 27.9475 170.575 26.8897 173.105 25.6997C174.786 29.7215 175.802 34.0133 176.051 38.4097H176.19C175.308 23.1764 165.659 9.12754 150.384 3.28762C146.544 1.81663 142.616 0.973695 138.71 0.698228C138.377 0.665172 138.049 0.643135 137.716 0.626607C137.467 0.604569 137.211 0.593551 136.962 0.59906C136.94 0.59906 136.917 0.604569 136.901 0.604569C136.723 0.604569 136.546 0.59906 136.368 0.59906C136.335 0.59906 136.296 0.604569 136.263 0.604569C136.03 0.59906 135.797 0.59906 135.564 0.59906ZM136.751 1.26569C136.856 1.26569 136.956 1.26569 137.056 1.2712L137.112 6.14147C134.581 6.09739 132.096 5.88804 129.66 5.5134C131.84 2.8634 134.265 1.3869 136.751 1.26569ZM137.728 1.29324C137.789 1.29875 137.85 1.30426 137.911 1.30426C139.608 1.5081 141.317 2.34552 142.988 3.88814C143.581 4.43357 144.153 5.05613 144.702 5.74479C142.505 6.00924 140.269 6.14698 137.999 6.14698C137.9 6.14698 137.8 6.14698 137.7 6.14147L137.728 1.29324ZM133.771 1.43097C132.19 2.22432 130.659 3.57962 129.238 5.44729C127.696 5.19937 126.17 4.88534 124.672 4.5107C127.546 2.87442 130.62 1.82213 133.771 1.43097ZM140.824 1.64584C143.021 2.05904 145.212 2.79729 147.365 3.88814C148.031 4.22421 148.68 4.59334 149.318 4.97899C147.937 5.27099 146.539 5.50789 145.129 5.6897C144.458 4.78066 143.748 3.97629 143.01 3.28211C142.288 2.60446 141.556 2.06455 140.824 1.64584ZM129.449 1.75602C127.557 2.37858 125.709 3.23804 123.945 4.32889C123.24 4.14157 122.536 3.94324 121.842 3.72837C124.3 2.83586 126.847 2.16922 129.449 1.75602ZM145.479 2.40062C147.105 2.79178 148.73 3.28762 150.334 3.89365C150.789 4.06444 151.244 4.24625 151.688 4.43357C151.138 4.5713 150.589 4.70353 150.034 4.83024C149.185 4.26829 148.309 3.75041 147.404 3.28762C146.766 2.95706 146.122 2.66507 145.479 2.40062ZM121.065 4.02037C121.825 4.26278 122.597 4.48866 123.368 4.70353C121.326 6.03679 119.395 7.67307 117.62 9.59583C116.232 9.07244 114.873 8.49396 113.536 7.87691C115.905 6.33429 118.43 5.0396 121.065 4.02037ZM152.459 4.76413C155.533 6.11943 158.346 7.8108 160.887 9.77764C159.578 10.268 158.246 10.7142 156.898 11.1109C155.033 8.83554 152.931 6.84666 150.611 5.22141C151.233 5.07816 151.849 4.92941 152.459 4.76413ZM124.039 4.88533C124.039 4.88533 124.039 4.88533 124.045 4.88533C125.632 5.29854 127.252 5.64012 128.894 5.91007C127.69 7.58492 126.569 9.62889 125.565 12.0144C122.974 11.4139 120.449 10.6536 118.008 9.74458C119.872 7.8108 121.897 6.18003 124.039 4.88533ZM149.94 5.37567C152.376 6.96236 154.584 8.93471 156.537 11.2211C154.062 11.9373 151.538 12.4937 148.963 12.8959C147.948 10.312 146.777 8.03668 145.462 6.1635C146.977 5.95966 148.469 5.69521 149.94 5.37567ZM129.294 5.97619C131.846 6.37837 134.454 6.60425 137.112 6.64833L137.184 13.5736C135.236 13.502 133.272 13.3312 131.291 13.0667C129.421 12.8133 127.579 12.4772 125.77 12.064C126.83 9.65643 128.018 7.61246 129.294 5.97619ZM145.068 6.20758C146.45 8.0477 147.687 10.3231 148.764 12.929C145.135 13.4799 141.423 13.7113 137.65 13.5901L137.694 6.65384C137.794 6.65384 137.888 6.65384 137.988 6.65384C140.385 6.65935 142.749 6.50508 145.068 6.20758ZM113.264 8.05321C114.629 8.68128 116.022 9.25425 117.442 9.78866C115.361 12.0695 113.503 14.7471 111.921 17.7717C109.713 16.8902 107.56 15.8985 105.468 14.8132C107.776 12.2128 110.401 9.94843 113.264 8.05321ZM161.087 9.9319C163.517 11.8436 165.687 14.0088 167.573 16.3723C165.676 17.2483 163.734 18.0362 161.758 18.7414C160.421 16.0197 158.84 13.5075 157.025 11.2707C158.396 10.8685 159.75 10.4277 161.087 9.9319ZM117.83 9.92639C120.305 10.8354 122.857 11.5957 125.487 12.1907C124.411 14.7856 123.468 17.7662 122.696 21.0994C119.057 20.284 115.533 19.1986 112.138 17.8543C113.763 14.8407 115.683 12.1852 117.83 9.92639ZM156.665 11.3753C158.54 13.5901 160.171 16.0969 161.547 18.8185C158.313 19.9589 154.978 20.868 151.56 21.5291C150.872 18.4659 150.023 15.6065 149.024 13.0447C151.621 12.648 154.173 12.0861 156.665 11.3753ZM125.693 12.2348C127.452 12.6315 129.238 12.9565 131.058 13.1989C133.117 13.4799 135.159 13.6507 137.189 13.7223L137.289 22.8017C135.614 22.7797 133.932 22.6971 132.24 22.5538C129.027 22.2839 125.876 21.799 122.807 21.1214C123.601 17.7827 124.577 14.8077 125.693 12.2348ZM148.825 13.0777C149.862 15.6176 150.744 18.4769 151.455 21.5511C146.96 22.4106 142.322 22.8458 137.6 22.8017L137.65 13.7389C141.439 13.8546 145.179 13.6232 148.825 13.0777ZM105.224 15.0997C107.344 16.185 109.53 17.1712 111.777 18.0527C110.484 20.5705 109.386 23.3251 108.531 26.2947C108.398 26.7519 108.276 27.2037 108.159 27.661C105.185 26.493 102.311 25.1597 99.5479 23.6777C101.079 20.5264 102.999 17.656 105.224 15.0997ZM167.734 16.5762C169.854 19.2647 171.596 22.2067 172.939 25.3195C170.436 26.515 167.867 27.5894 165.248 28.5315C164.438 25.1487 163.301 21.9202 161.858 18.9397C163.856 18.2345 165.82 17.4467 167.734 16.5762ZM111.988 18.1298C115.417 19.4576 118.973 20.5264 122.647 21.3252C122.286 22.9064 121.964 24.5702 121.692 26.3057C121.415 28.0301 121.193 29.7821 121.026 31.5341C119.395 31.187 117.764 30.7848 116.133 30.333C113.447 29.5838 110.828 28.7078 108.287 27.7106C108.392 27.2974 108.509 26.8842 108.625 26.471C109.513 23.4574 110.645 20.6696 111.988 18.1298ZM161.647 19.0168C163.129 21.9809 164.3 25.1983 165.126 28.57C161.237 29.9639 157.236 31.0658 153.152 31.8536C152.825 28.3056 152.298 24.8953 151.593 21.6999C155.033 21.0443 158.39 20.1462 161.647 19.0168ZM122.752 21.3473C125.754 21.9919 128.828 22.4547 131.974 22.7191C133.755 22.8679 135.525 22.9505 137.284 22.967L137.395 33.3191C132.001 33.286 126.542 32.7076 121.082 31.5451C121.254 29.8482 121.47 28.1568 121.742 26.4765C122.031 24.6859 122.369 22.9725 122.752 21.3473ZM151.488 21.7219C152.215 24.9008 152.753 28.3166 153.091 31.8646C148.009 32.8398 142.804 33.3411 137.533 33.3191L137.6 22.9725C142.333 23.0056 146.982 22.5759 151.493 21.7219H151.488Z" fill="white"/>
</g>
</g>
</g>
</g>
</g>
</g>
</g>
</g>
</g>
<g id="Group_44">
<g id="Group_45">
<g id="Group_46">
<path id="Vector_24" d="M0 51.9046V35.9482H4.57049C5.70601 35.9482 6.75638 36.0788 7.72157 36.3398C8.70096 36.6009 9.55261 37.0495 10.2765 37.6777C11.0146 38.2895 11.5895 39.1053 12.0082 40.125C12.4198 41.1528 12.6327 42.4254 12.6327 43.9427C12.6327 45.4682 12.4198 46.7408 12.0082 47.7605C11.5895 48.7639 11.0146 49.5797 10.2765 50.2078C9.55261 50.8196 8.70096 51.252 7.72157 51.513C6.75638 51.7741 5.70601 51.9046 4.57049 51.9046H0ZM3.29302 48.7394H4.62727C5.23051 48.7394 5.80537 48.6905 6.35894 48.5763C6.90541 48.4458 7.39511 48.2174 7.83512 47.8911C8.26804 47.5647 8.6087 47.0916 8.8571 46.4553C9.0984 45.8272 9.22614 44.9869 9.22614 43.9427C9.22614 42.8823 9.0984 42.0339 8.8571 41.3976C8.6087 40.7449 8.26804 40.2555 7.83512 39.9292C7.39511 39.6029 6.90541 39.3908 6.35894 39.2766C5.80537 39.146 5.23051 39.0808 4.62727 39.0808H3.29302V48.7394Z" fill="white"/>
</g>
</g>
</g>
<g id="Group_47">
<g id="Group_48">
<g id="Group_49">
<path id="Vector_25" d="M14.2517 51.9046V35.9482H24.9256V39.2766H17.5447V42.0502H22.0584V45.3459H17.5447V48.5763H24.9256V51.9046H14.2517Z" fill="white"/>
</g>
</g>
</g>
</g>
</svg>
