<svg width="146" height="81" viewBox="0 0 146 81" fill="none" xmlns="http://www.w3.org/2000/svg">
<path d="M36.9269 49.4199C34.9407 49.4199 33.2648 48.9561 31.8993 48.0168C30.5441 47.0833 29.5872 45.7753 29.0234 44.0928L32.9545 42.4756C33.2131 43.4745 33.6993 44.2236 34.4027 44.7111C35.1062 45.1867 35.9545 45.4246 36.9476 45.4246C37.4855 45.4246 37.9924 45.3651 38.4786 45.2343C38.9752 45.0916 39.389 44.8657 39.72 44.5446C40.051 44.2117 40.2165 43.7717 40.2165 43.2129C40.2165 42.4875 39.9062 41.9227 39.2855 41.5244C38.6648 41.1141 37.8579 40.799 36.8648 40.5731L34.651 40.0737C33.6683 39.8537 32.7527 39.5029 31.8993 39.0273C31.0562 38.5517 30.3786 37.9274 29.8717 37.1485C29.3596 36.3578 29.1062 35.3649 29.1062 34.1758C29.1062 33.0343 29.3338 32.0593 29.789 31.2507C30.2441 30.4302 30.8493 29.7525 31.6096 29.2293C32.3648 28.7061 33.2027 28.3196 34.1131 28.064C35.0234 27.7964 35.9338 27.6597 36.8441 27.6597C37.8372 27.6597 38.789 27.8202 39.6993 28.1353C40.62 28.4564 41.4476 28.9439 42.1821 29.6098C42.9114 30.2638 43.47 31.1318 43.8579 32.2257L39.9476 33.8429C39.6993 33.1473 39.27 32.6062 38.6648 32.2257C38.0545 31.8452 37.3252 31.655 36.4717 31.655C35.6286 31.655 34.9252 31.8333 34.3614 32.1782C33.8079 32.529 33.5338 33.0284 33.5338 33.6764C33.5338 34.1996 33.7252 34.6515 34.1131 35.032C34.4959 35.4006 35.0027 35.6503 35.6234 35.793L38.0855 36.3637C38.8303 36.5421 39.5803 36.7621 40.3407 37.0296C41.1114 37.2853 41.82 37.6242 42.4717 38.0522C43.1183 38.4803 43.6407 39.0511 44.0441 39.7645C44.4424 40.478 44.6441 41.3817 44.6441 42.4756C44.6441 43.5874 44.4165 44.5803 43.9614 45.4483C43.5165 46.3045 42.9269 47.0358 42.1821 47.6362C41.4476 48.2248 40.6303 48.6707 39.72 48.968C38.8096 49.2653 37.8786 49.4199 36.9269 49.4199Z" fill="black"/>
<path d="M46.4648 49.0392V28.04H50.789V36.0545H58.32V28.04H62.6235V49.0392H58.32V40.4303H50.789V49.0392H46.4648Z" fill="black"/>
<path d="M74.2571 49.4199C72.395 49.4199 70.7502 48.968 69.333 48.0643C67.9106 47.1606 66.7933 45.8942 65.9813 44.2593C65.1795 42.6302 64.7812 40.7158 64.7812 38.5279C64.7812 36.3578 65.1795 34.4553 65.9813 32.8203C66.7933 31.1912 67.9106 29.9189 69.333 29.0152C70.7502 28.1115 72.395 27.6597 74.2571 27.6597C76.1295 27.6597 77.7795 28.1115 79.2019 29.0152C80.6192 29.9189 81.7364 31.1912 82.5537 32.8203C83.3657 34.4553 83.7744 36.3578 83.7744 38.5279C83.7744 40.7158 83.3657 42.6302 82.5537 44.2593C81.7364 45.8942 80.6192 47.1606 79.2019 48.0643C77.7795 48.968 76.1295 49.4199 74.2571 49.4199ZM74.2571 45.3294C75.1364 45.3294 75.9537 45.0797 76.6985 44.5684C77.4537 44.0452 78.0537 43.2842 78.4985 42.2854C78.9537 41.2747 79.1812 40.0202 79.1812 38.5279C79.1812 37.0534 78.9537 35.8168 78.4985 34.8179C78.0537 33.8072 77.4537 33.0462 76.6985 32.5349C75.9537 32.0117 75.1364 31.7501 74.2571 31.7501C73.3726 31.7501 72.5606 32.0117 71.8157 32.5349C71.0709 33.0462 70.4709 33.8072 70.0157 34.8179C69.5709 35.8168 69.3537 37.0534 69.3537 38.5279C69.3537 40.0202 69.5709 41.2747 70.0157 42.2854C70.4709 43.2842 71.0709 44.0452 71.8157 44.5684C72.5606 45.0797 73.3726 45.3294 74.2571 45.3294Z" fill="black"/>
<path d="M85.918 49.0392V28.04H92.9525C94.5352 28.04 95.9525 28.2303 97.1938 28.6108C98.4456 28.9794 99.4335 29.6572 100.152 30.656C100.866 31.643 101.228 33.052 101.228 34.8892C101.228 36.7144 100.866 38.1235 100.152 39.1223C99.4335 40.1211 98.4456 40.8108 97.1938 41.1913C95.9525 41.5599 94.5352 41.7383 92.9525 41.7383H90.2421V49.0392H85.918ZM90.2421 37.624H93.0973C93.7593 37.624 94.3593 37.5527 94.8973 37.41C95.4352 37.2673 95.8593 36.9998 96.18 36.6014C96.5111 36.1912 96.6766 35.6204 96.6766 34.8892C96.6766 34.1638 96.5111 33.6049 96.18 33.2244C95.8593 32.832 95.4352 32.5704 94.8973 32.4396C94.3593 32.297 93.7593 32.2256 93.0973 32.2256H90.2421V37.624Z" fill="black"/>
<path d="M26.5479 36.8027L110.812 36.8027" stroke="white"/>
<mask id="mask0_447_1782" style="mask-type:luminance" maskUnits="userSpaceOnUse" x="53" y="22" width="24" height="28">
<path d="M53.3154 22.5635H76.9016V49.9599H53.3154V22.5635Z" fill="white"/>
</mask>
<g mask="url(#mask0_447_1782)">
<path d="M76.8706 35.4829L69.4999 35.685C67.1827 35.0845 66.1482 33.8657 65.6413 31.1546L65.843 22.5635H64.3172L64.5034 31.3092C63.9861 33.9133 62.9465 35.0964 60.6758 35.685L53.3206 35.4829V36.3509V37.2367L60.6447 37.0049C62.9672 37.5994 64.012 38.8123 64.5241 41.4996L64.3172 50.1561H65.843L65.662 41.4342C66.1792 38.7885 67.224 37.5935 69.5309 37.0049L76.8706 37.2367V35.4829Z" fill="white"/>
</g>
<path d="M23.3328 69.641L21.2017 67.3342C20.069 68.226 18.7086 68.666 17.1259 68.666C15.8017 68.666 14.6276 68.3509 13.6086 67.7147C12.5845 67.0667 11.7879 66.163 11.2086 65.0036C10.6397 63.8324 10.3604 62.459 10.3604 60.8894C10.3604 59.3376 10.6397 57.9821 11.2086 56.8227C11.7879 55.6515 12.5845 54.7418 13.6086 54.0878C14.6276 53.4398 15.8017 53.1128 17.1259 53.1128C18.4604 53.1128 19.6397 53.4398 20.6638 54.0878C21.6828 54.7418 22.4845 55.6515 23.0638 56.8227C23.6431 57.9821 23.9328 59.3376 23.9328 60.8894C23.9328 61.7634 23.8345 62.5779 23.6431 63.3389C23.4621 64.088 23.1983 64.7599 22.8569 65.3603L24.9466 67.6434L23.3328 69.641ZM17.1259 65.7408C17.8707 65.7408 18.5224 65.5149 19.0914 65.0512L16.2776 62.0071L17.9121 60.0333L20.4362 62.7681C20.5035 62.4828 20.55 62.1914 20.581 61.8882C20.6224 61.5731 20.6431 61.2402 20.6431 60.8894C20.6431 59.8311 20.4828 58.9393 20.1672 58.2258C19.8466 57.5124 19.4224 56.9773 18.8845 56.6087C18.3466 56.2282 17.7569 56.0379 17.1259 56.0379C16.5052 56.0379 15.9259 56.2282 15.3879 56.6087C14.85 56.9773 14.4207 57.5124 14.1052 58.2258C13.7845 58.9393 13.6293 59.8311 13.6293 60.8894C13.6293 61.9536 13.7845 62.8514 14.1052 63.5767C14.4207 64.2902 14.85 64.8312 15.3879 65.1939C15.9259 65.5625 16.5052 65.7408 17.1259 65.7408Z" fill="black"/>
<path d="M31.444 68.6663C29.3854 68.6663 27.9319 68.1133 27.0785 67.0015C26.2354 65.8779 25.8164 64.1596 25.8164 61.8409V53.3984H28.8992V62.1263C28.8992 62.8754 28.9612 63.5235 29.0854 64.0764C29.2095 64.6174 29.4474 65.0395 29.8095 65.3368C30.1819 65.6222 30.725 65.7649 31.444 65.7649C32.1578 65.7649 32.6957 65.6222 33.0578 65.3368C33.4147 65.0395 33.6578 64.6174 33.7819 64.0764C33.9061 63.5235 33.9681 62.8754 33.9681 62.1263V53.3984H37.0509V61.8409C37.0509 64.1596 36.6164 65.8779 35.7474 67.0015C34.8888 68.1133 33.4561 68.6663 31.444 68.6663Z" fill="black"/>
<path d="M38.7793 68.4047V53.3984H48.8138V56.5138H41.8621V59.1298H46.1034V62.2452H41.8621V65.2893H48.8138V68.4047H38.7793Z" fill="black"/>
<path d="M50.1201 68.4047V53.3984H55.8305C56.7822 53.3984 57.6201 53.5114 58.3546 53.7314C59.0994 53.9395 59.6891 54.3259 60.1339 54.8967C60.5736 55.4556 60.796 56.2522 60.796 57.2986C60.796 58.0002 60.6563 58.6066 60.3822 59.1298C60.1184 59.653 59.7408 60.093 59.2443 60.4378C59.8494 60.6756 60.346 61.068 60.7339 61.6031C61.1167 62.1441 61.3132 62.8635 61.3132 63.7672C61.3132 64.8969 61.0908 65.8006 60.6512 66.4783C60.2218 67.1442 59.6063 67.6377 58.8098 67.9528C58.008 68.256 57.0822 68.4047 56.0374 68.4047H50.1201ZM53.2029 59.3201H55.9132C56.4356 59.3201 56.8443 59.1893 57.1339 58.9158C57.4339 58.6304 57.5891 58.2618 57.5891 57.798C57.5891 57.3224 57.4339 56.9597 57.1339 56.7041C56.8443 56.4365 56.4356 56.2998 55.9132 56.2998H53.2029V59.3201ZM53.2029 65.4557H56.058C56.7201 65.4557 57.2167 65.3071 57.5477 65.0039C57.8787 64.6888 58.0443 64.2666 58.0443 63.7435C58.0443 63.2203 57.8787 62.816 57.5477 62.5306C57.2167 62.2333 56.7201 62.0787 56.058 62.0787H53.2029V65.4557Z" fill="black"/>
<path d="M62.6133 68.4047V53.3984H67.6202C68.7633 53.3984 69.7771 53.5292 70.6616 53.7789C71.5564 54.0346 72.2598 54.5043 72.7719 55.1821C73.2943 55.8479 73.5581 56.7992 73.5581 58.0359C73.5581 58.6066 73.4598 59.1774 73.2685 59.7481C73.0874 60.307 72.7719 60.8183 72.3167 61.2939C71.8719 61.7577 71.2409 62.1144 70.4133 62.3641L74.1995 68.4047H70.6202L67.0822 62.7446H65.696V68.4047H62.6133ZM65.696 59.7719H67.7236C68.4529 59.7719 69.0581 59.6708 69.5443 59.4628C70.0409 59.2428 70.2891 58.785 70.2891 58.0834C70.2891 57.3878 70.0409 56.93 69.5443 56.7041C69.0581 56.4841 68.4529 56.3711 67.7236 56.3711H65.696V59.7719Z" fill="black"/>
<path d="M74.6348 68.4047L79.5796 53.3984H82.9727L87.9175 68.4047H84.5658L83.7796 65.7411H78.7727L77.9865 68.4047H74.6348ZM79.621 62.8635H82.9313L81.2555 57.1559L79.621 62.8635Z" fill="black"/>
<path d="M88.8916 68.4047V53.3984H93.1744C94.2502 53.3984 95.2433 53.5292 96.1537 53.7789C97.0744 54.0168 97.8761 54.4329 98.5537 55.0156C99.2416 55.5863 99.7795 56.3593 100.167 57.3224C100.55 58.2915 100.747 59.4806 100.747 60.8897C100.747 62.3344 100.55 63.5413 100.167 64.5045C99.7795 65.4557 99.2416 66.2286 98.5537 66.8113C97.8761 67.382 97.0744 67.7982 96.1537 68.0479C95.2433 68.2857 94.2502 68.4047 93.1744 68.4047H88.8916ZM91.9744 65.4082H93.2364C93.8002 65.4082 94.3382 65.3606 94.8502 65.2655C95.3726 65.1585 95.833 64.9504 96.2364 64.6472C96.6502 64.332 96.9709 63.8802 97.2088 63.2916C97.4416 62.6911 97.5606 61.8885 97.5606 60.8897C97.5606 59.9087 97.4416 59.1179 97.2088 58.5115C96.9709 57.8932 96.6502 57.4354 96.2364 57.1322C95.833 56.8349 95.3726 56.6268 94.8502 56.5138C94.3382 56.4068 93.8002 56.3474 93.2364 56.3474H91.9744V65.4082Z" fill="black"/>
<path d="M101.539 68.4047L106.484 53.3984H109.877L114.822 68.4047H111.47L110.684 65.7411H105.677L104.891 68.4047H101.539ZM106.525 62.8635H109.836L108.16 57.1559L106.525 62.8635Z" fill="black"/>
<mask id="mask1_447_1782" style="mask-type:luminance" maskUnits="userSpaceOnUse" x="68" y="40" width="78" height="41">
<path d="M68.957 40.186H145.757V80.0828H68.957V40.186Z" fill="white"/>
</mask>
<g mask="url(#mask1_447_1782)">
<mask id="mask2_447_1782" style="mask-type:luminance" maskUnits="userSpaceOnUse" x="68" y="21" width="85" height="70">
<path d="M68.4189 45.0795L137.015 21.5259L152.434 66.8253L83.8379 90.3841L68.4189 45.0795Z" fill="white"/>
</mask>
<g mask="url(#mask2_447_1782)">
<mask id="mask3_447_1782" style="mask-type:luminance" maskUnits="userSpaceOnUse" x="68" y="21" width="85" height="70">
<path d="M83.7757 90.1917L152.372 66.6329L136.948 21.3335L68.3516 44.8871L83.7757 90.1917Z" fill="white"/>
</mask>
<g mask="url(#mask3_447_1782)">
<path d="M106.907 79.9057C92.0048 79.807 77.9772 70.7003 72.2772 55.8949C70.8445 52.1754 70.0479 48.3675 69.8203 44.5908H69.9445C70.1669 48.3104 70.9686 52.0663 72.4013 55.7287C72.7117 56.5287 73.0479 57.3079 73.41 58.0716C75.991 56.6897 78.6703 55.4533 81.4427 54.3676C80.6307 51.1312 80.1651 47.8376 80.0151 44.57H80.1082C80.2531 47.822 80.7289 51.1 81.5565 54.3208C83.8376 53.4325 86.1755 52.6429 88.5755 51.9624C90.1789 51.5052 91.7876 51.1104 93.3962 50.7623C93.1945 48.6948 93.0703 46.6168 93.0186 44.5441H93.0703C93.122 46.6116 93.2462 48.6896 93.4479 50.752C98.5065 49.6714 103.57 49.1208 108.572 49.074L108.639 41.5103L108.696 49.074C113.579 49.0376 118.41 49.474 123.127 50.352C123.298 48.4298 123.407 46.4714 123.453 44.4869H123.505C123.458 46.4714 123.35 48.4402 123.184 50.3623C126.981 51.0792 130.705 52.0767 134.32 53.3494C134.988 50.4818 135.396 47.4948 135.52 44.4661H135.619C135.494 47.5103 135.091 50.5078 134.434 53.391C136.886 54.2533 139.291 55.2455 141.634 56.352C143.191 52.5858 144.122 48.5649 144.35 44.4454H144.479C143.677 58.7105 134.76 71.8796 120.629 77.3706C117.075 78.7524 113.439 79.5472 109.824 79.807C109.519 79.8381 109.208 79.8641 108.903 79.8797C108.67 79.9005 108.438 79.9057 108.205 79.9057C108.184 79.9005 108.169 79.9005 108.148 79.9005C107.982 79.9005 107.817 79.9057 107.657 79.9057C107.62 79.9057 107.589 79.9005 107.558 79.9005C107.341 79.9057 107.124 79.9057 106.907 79.9057ZM108.013 79.2823C108.107 79.2823 108.2 79.2771 108.293 79.2771L108.334 74.716C105.996 74.7575 103.694 74.9601 101.439 75.3134C103.462 77.7862 105.712 79.168 108.008 79.2823H108.013ZM108.913 79.2511C108.97 79.2511 109.027 79.2459 109.084 79.2407C110.651 79.0485 112.234 78.2641 113.781 76.8199C114.329 76.3056 114.857 75.7238 115.363 75.0796C113.325 74.8303 111.257 74.7056 109.157 74.7056C109.063 74.7056 108.975 74.7108 108.882 74.7108L108.913 79.2511ZM105.251 79.1316C103.782 78.3888 102.365 77.1212 101.046 75.3757C99.6186 75.6095 98.2065 75.9056 96.8203 76.2537C99.4841 77.7862 102.329 78.7628 105.251 79.1316ZM111.779 78.9186C113.812 78.529 115.839 77.8329 117.836 76.8095C118.451 76.4926 119.051 76.1498 119.636 75.7861C118.363 75.516 117.07 75.2978 115.762 75.1264C115.141 75.9783 114.484 76.7368 113.801 77.381C113.134 78.0199 112.457 78.529 111.779 78.9186ZM101.248 78.8303C99.4944 78.2485 97.7876 77.4433 96.1479 76.4251C95.4962 76.6017 94.8444 76.7887 94.1979 76.9913C96.4789 77.8277 98.8376 78.4459 101.248 78.8303ZM116.088 78.2069C117.593 77.8381 119.093 77.3706 120.582 76.8043C121.001 76.6433 121.42 76.4718 121.834 76.2952C121.327 76.1654 120.815 76.0407 120.303 75.9264C119.517 76.4563 118.705 76.9394 117.872 77.3758C117.282 77.6823 116.682 77.9576 116.088 78.2069ZM93.4841 76.7212C94.1876 76.4926 94.8962 76.2796 95.6151 76.077C93.722 74.8355 91.9324 73.2978 90.2876 71.5003C88.9996 71.9991 87.7427 72.5393 86.5065 73.1211C88.6996 74.5601 91.0427 75.7653 93.4841 76.7212ZM122.548 75.9835C125.388 74.7108 127.994 73.1263 130.343 71.277C129.127 70.825 127.896 70.4042 126.65 70.0354C124.927 72.1705 122.982 74.0354 120.836 75.5575C121.41 75.6926 121.984 75.8329 122.548 75.9835ZM96.2358 75.9056C97.71 75.5212 99.21 75.1939 100.731 74.9394C99.6134 73.3757 98.5738 71.4588 97.6376 69.2302C95.2376 69.7964 92.9048 70.5133 90.6445 71.3653C92.372 73.1731 94.2496 74.6952 96.2358 75.9056ZM120.215 75.4173C122.465 73.9264 124.508 72.077 126.313 69.9367C124.027 69.2665 121.684 68.7471 119.305 68.3782C118.363 70.7938 117.282 72.9289 116.072 74.6848C117.469 74.8718 118.855 75.116 120.215 75.4173ZM101.098 74.8822C103.462 74.4978 105.877 74.2848 108.334 74.238L108.396 67.7496C106.591 67.8276 104.77 67.9834 102.939 68.238C101.207 68.4769 99.4996 68.7938 97.8289 69.1834C98.8117 71.438 99.9186 73.3445 101.098 74.8822ZM115.7 74.6381C116.982 72.9185 118.125 70.7886 119.113 68.347C115.757 67.8328 112.317 67.6198 108.825 67.7392L108.872 74.2329C108.965 74.2329 109.058 74.2329 109.146 74.2329C111.37 74.2277 113.553 74.3679 115.7 74.6381ZM86.2582 72.9549C87.5203 72.3679 88.8082 71.8224 90.122 71.3237C88.1927 69.1886 86.4651 66.6847 85.0013 63.8535C82.9531 64.6846 80.9617 65.6093 79.0272 66.6327C81.1686 69.0639 83.6048 71.1783 86.2582 72.9549ZM130.529 71.1315C132.779 69.3393 134.781 67.3081 136.524 65.095C134.77 64.2794 132.97 63.5418 131.139 62.882C129.908 65.4327 128.444 67.7912 126.769 69.8899C128.036 70.264 129.293 70.6744 130.529 71.1315ZM90.4789 71.1938C92.7703 70.3367 95.1341 69.625 97.5651 69.0639C96.5669 66.6379 95.6876 63.8431 94.9738 60.7261C91.6013 61.4898 88.3376 62.5132 85.1979 63.7755C86.7082 66.5964 88.4927 69.0847 90.4789 71.1938ZM126.432 69.7912C128.165 67.7081 129.675 65.36 130.943 62.8145C127.948 61.7495 124.86 60.8976 121.694 60.2846C121.063 63.1574 120.282 65.8379 119.357 68.2328C121.762 68.6016 124.125 69.1263 126.432 69.7912ZM97.7565 69.0224C99.3858 68.6483 101.041 68.3419 102.722 68.1133C104.625 67.8483 106.519 67.6873 108.401 67.6146L108.479 59.1157C106.932 59.1365 105.375 59.2144 103.808 59.3495C100.829 59.604 97.9117 60.0664 95.072 60.7054C95.8117 63.8275 96.722 66.6171 97.7565 69.0224ZM119.175 68.2068C120.132 65.8223 120.944 63.147 121.596 60.269C117.432 59.4638 113.139 59.0638 108.763 59.1105L108.825 67.599C112.338 67.4847 115.798 67.6977 119.175 68.2068ZM78.7996 66.3626C80.7651 65.3444 82.7876 64.4145 84.8669 63.5937C83.6669 61.2352 82.6479 58.6534 81.8462 55.8741C81.7272 55.4481 81.6134 55.0222 81.5048 54.5962C78.7531 55.6923 76.0893 56.9443 73.5341 58.3365C74.9565 61.2872 76.7358 63.9729 78.7996 66.3626ZM136.679 64.9028C138.634 62.3833 140.243 59.6248 141.484 56.7105C139.162 55.5936 136.782 54.591 134.357 53.713C133.617 56.8767 132.562 59.9054 131.232 62.7002C133.084 63.3548 134.9 64.0924 136.679 64.9028ZM85.0634 63.5158C88.2289 62.2742 91.5238 61.2664 94.922 60.5132C94.591 59.0326 94.291 57.4741 94.0324 55.8533C93.7789 54.2325 93.572 52.5961 93.4117 50.9494C91.9013 51.2818 90.391 51.6611 88.8858 52.087C86.3979 52.7936 83.9772 53.6143 81.6186 54.5494C81.722 54.939 81.8255 55.3235 81.9393 55.7131C82.7617 58.5287 83.8169 61.1417 85.0634 63.5158ZM131.036 62.6275C132.401 59.8482 133.482 56.83 134.243 53.6715C130.643 52.378 126.939 51.3494 123.158 50.6169C122.858 53.9364 122.377 57.1365 121.725 60.1235C124.912 60.7365 128.02 61.5729 131.036 62.6275ZM95.0203 60.4924C97.8031 59.8846 100.648 59.443 103.56 59.1937C105.21 59.0534 106.85 58.9755 108.479 58.9547L108.567 49.2662C103.57 49.3026 98.5169 49.848 93.4686 50.939C93.6238 52.5338 93.8307 54.1182 94.0841 55.6871C94.3531 57.3651 94.6686 58.9703 95.0203 60.4924ZM121.632 60.108C122.3 57.1261 122.791 53.926 123.101 50.6065C118.394 49.6974 113.574 49.2351 108.696 49.2662L108.763 58.9495C113.15 58.9131 117.453 59.3131 121.632 60.108Z" fill="black"/>
</g>
</g>
</g>
<mask id="mask4_447_1782" style="mask-type:luminance" maskUnits="userSpaceOnUse" x="68" y="0" width="78" height="42">
<path d="M68.957 0.870605H145.757V41.708H68.957V0.870605Z" fill="white"/>
</mask>
<g mask="url(#mask4_447_1782)">
<mask id="mask5_447_1782" style="mask-type:luminance" maskUnits="userSpaceOnUse" x="68" y="-10" width="85" height="72">
<path d="M83.8171 -9.12109L152.45 14.8975L137.088 61.2862L68.4551 37.2677L83.8171 -9.12109Z" fill="white"/>
</mask>
<g mask="url(#mask5_447_1782)">
<mask id="mask6_447_1782" style="mask-type:luminance" maskUnits="userSpaceOnUse" x="68" y="-10" width="85" height="72">
<path d="M83.8171 -9.12109L152.45 14.8975L137.088 61.2862L68.4551 37.2677L83.8171 -9.12109Z" fill="white"/>
</mask>
<g mask="url(#mask6_447_1782)">
<path d="M107.129 1.4452C92.1242 1.5675 78.0138 10.9739 72.2931 26.2401C70.8552 30.0739 70.0535 33.9982 69.8311 37.8958H69.9552C70.1724 34.0566 70.9742 30.1856 72.4121 26.4103C72.7276 25.5861 73.0638 24.7832 73.4259 23.9962C76.0276 25.4159 78.7276 26.6815 81.5207 27.8034C80.7086 31.1374 80.2431 34.5299 80.0983 37.9011H80.1914C80.3311 34.5458 80.8069 31.1693 81.6397 27.8513C83.9311 28.7605 86.2897 29.5741 88.7052 30.2707C90.3242 30.7386 91.938 31.1427 93.5569 31.499C93.3604 33.6313 93.2414 35.7742 93.1897 37.9064H93.2414C93.2931 35.7795 93.4173 33.6366 93.6138 31.5096C98.7086 32.621 103.803 33.174 108.841 33.2165L108.924 41.0118L108.971 33.2165C113.885 33.2484 118.752 32.7964 123.495 31.8818C123.671 33.8599 123.785 35.8805 123.831 37.9277H123.883C123.836 35.8805 123.722 33.8546 123.552 31.8712C127.374 31.1268 131.124 30.0952 134.766 28.7765C135.443 31.733 135.857 34.8064 135.986 37.933H136.085C135.95 34.7958 135.547 31.7064 134.879 28.734C137.347 27.8406 139.767 26.8197 142.126 25.6712C143.693 29.5528 144.64 33.6951 144.872 37.9383H145.002C144.179 23.2358 135.185 9.6765 120.945 4.04008C117.366 2.62034 113.703 1.80678 110.062 1.54092C109.752 1.50901 109.447 1.48774 109.136 1.47179C108.903 1.45052 108.666 1.43989 108.433 1.4452C108.412 1.4452 108.391 1.45052 108.376 1.45052C108.21 1.45052 108.045 1.4452 107.879 1.4452C107.848 1.4452 107.812 1.45052 107.781 1.45052C107.564 1.4452 107.347 1.4452 107.129 1.4452ZM108.236 2.0886C108.335 2.0886 108.428 2.0886 108.521 2.09392L108.572 6.79448C106.214 6.75194 103.897 6.54988 101.626 6.1883C103.659 3.63064 105.919 2.20559 108.236 2.0886ZM109.147 2.11519C109.203 2.12051 109.26 2.12583 109.317 2.12583C110.9 2.32257 112.493 3.13081 114.05 4.61967C114.603 5.14609 115.136 5.74696 115.648 6.41163C113.6 6.66686 111.516 6.7998 109.4 6.7998C109.307 6.7998 109.214 6.7998 109.121 6.79448L109.147 2.11519ZM105.459 2.24813C103.985 3.01383 102.557 4.3219 101.233 6.12449C99.7948 5.88521 98.3724 5.58212 96.9759 5.22054C99.6552 3.64128 102.521 2.62566 105.459 2.24813ZM112.033 2.4555C114.081 2.85431 116.124 3.56683 118.131 4.61967C118.752 4.94403 119.357 5.3003 119.952 5.67251C118.664 5.95433 117.36 6.18298 116.047 6.35846C115.421 5.48109 114.759 4.70475 114.071 4.03476C113.398 3.38073 112.716 2.85963 112.033 2.4555ZM101.429 2.56185C99.6655 3.16271 97.9431 3.99222 96.2983 5.04506C95.6414 4.86427 94.9845 4.67285 94.338 4.46547C96.6293 3.60406 99.0035 2.96065 101.429 2.56185ZM116.372 3.18398C117.888 3.56152 119.403 4.04008 120.898 4.62499C121.322 4.78983 121.747 4.9653 122.16 5.14609C121.648 5.27903 121.136 5.40665 120.619 5.52894C119.828 4.98657 119.01 4.48674 118.167 4.04008C117.572 3.72104 116.972 3.43922 116.372 3.18398ZM93.6138 4.74729C94.3224 4.98126 95.0414 5.19927 95.7604 5.40665C93.8569 6.69345 92.0569 8.27271 90.4017 10.1285C89.1086 9.62332 87.8414 9.065 86.5948 8.46945C88.8035 6.98059 91.1569 5.731 93.6138 4.74729ZM122.879 5.46514C125.745 6.77321 128.367 8.40564 130.736 10.3039C129.516 10.7772 128.274 11.2079 127.017 11.5907C125.279 9.39467 123.319 7.4751 121.157 5.90648C121.736 5.76823 122.31 5.62466 122.879 5.46514ZM96.3862 5.58212C96.3862 5.58212 96.3862 5.58212 96.3914 5.58212C97.8707 5.98092 99.3811 6.3106 100.912 6.57115C99.7897 8.18763 98.7448 10.1604 97.8086 12.4628C95.3931 11.8832 93.0397 11.1494 90.7638 10.272C92.5017 8.40564 94.3897 6.8317 96.3862 5.58212ZM120.531 6.05536C122.802 7.58677 124.86 9.49039 126.681 11.6971C124.374 12.3884 122.021 12.9254 119.621 13.3136C118.674 10.8197 117.583 8.62365 116.357 6.81575C117.769 6.61901 119.16 6.36377 120.531 6.05536ZM101.285 6.63496C103.664 7.02313 106.095 7.24114 108.572 7.28368L108.64 13.9676C106.824 13.8985 104.993 13.7337 103.147 13.4784C101.403 13.2338 99.6862 12.9095 98 12.5107C98.988 10.187 100.095 8.21422 101.285 6.63496ZM115.99 6.85829C117.278 8.63429 118.431 10.8304 119.435 13.3455C116.052 13.8772 112.591 14.1006 109.074 13.9836L109.116 7.28899C109.209 7.28899 109.297 7.28899 109.39 7.28899C111.624 7.29431 113.828 7.14543 115.99 6.85829ZM86.3414 8.63961C87.6138 9.24579 88.9121 9.79879 90.2362 10.3146C88.2966 12.516 86.5638 15.1002 85.0897 18.0195C83.0311 17.1687 81.0242 16.2115 79.0742 15.164C81.2259 12.6542 83.6724 10.4688 86.3414 8.63961ZM130.922 10.4528C133.188 12.298 135.21 14.3877 136.969 16.6688C135.2 17.5143 133.39 18.2747 131.548 18.9553C130.302 16.3285 128.828 13.9038 127.136 11.745C128.414 11.3568 129.676 10.9314 130.922 10.4528ZM90.5983 10.4475C92.9052 11.3249 95.2845 12.0587 97.7362 12.633C96.7328 15.1374 95.8535 18.0141 95.1345 21.2311C91.7414 20.4442 88.4569 19.3967 85.2914 18.0992C86.8069 15.1906 88.5966 12.6276 90.5983 10.4475ZM126.8 11.846C128.548 13.9836 130.069 16.403 131.352 19.0298C128.336 20.1305 125.228 21.0078 122.041 21.6459C121.4 18.6894 120.609 15.9297 119.678 13.4571C122.098 13.0743 124.478 12.5319 126.8 11.846ZM97.9276 12.6755C99.5673 13.0583 101.233 13.3721 102.929 13.606C104.848 13.8772 106.752 14.0421 108.645 14.1112L108.738 22.8742C107.176 22.8529 105.609 22.7732 104.031 22.6349C101.036 22.3744 98.0983 21.9065 95.238 21.2524C95.9776 18.0301 96.888 15.1587 97.9276 12.6755ZM119.491 13.4891C120.459 15.9404 121.281 18.7001 121.943 21.6672C117.753 22.4967 113.429 22.9168 109.028 22.8742L109.074 14.1271C112.607 14.2388 116.093 14.0155 119.491 13.4891ZM78.8466 15.4405C80.8224 16.4881 82.8604 17.4399 84.9552 18.2906C83.75 20.7207 82.7259 23.3794 81.9293 26.2454C81.8052 26.6868 81.6914 27.1228 81.5828 27.5641C78.8104 26.4369 76.1311 25.1501 73.5552 23.7197C74.9828 20.6781 76.7724 17.9078 78.8466 15.4405ZM137.119 16.8656C139.095 19.4605 140.719 22.2999 141.971 25.3043C139.638 26.4581 137.243 27.495 134.802 28.4043C134.047 25.1394 132.986 22.0234 131.641 19.1467C133.503 18.4661 135.335 17.7057 137.119 16.8656ZM85.1517 18.3651C88.3483 19.6466 91.6638 20.6781 95.088 21.4492C94.7517 22.9752 94.4517 24.5811 94.1983 26.2561C93.9397 27.9204 93.7328 29.6113 93.5776 31.3023C92.0569 30.9673 90.5362 30.5791 89.0155 30.1431C86.5121 29.4199 84.0707 28.5744 81.7017 27.612C81.8 27.2132 81.9086 26.8144 82.0173 26.4156C82.8448 23.507 83.9 20.8164 85.1517 18.3651ZM131.445 19.2212C132.826 22.0819 133.917 25.1873 134.688 28.4415C131.062 29.7868 127.333 30.8503 123.526 31.6107C123.221 28.1863 122.729 24.8948 122.072 21.8107C125.279 21.178 128.409 20.3112 131.445 19.2212ZM95.1862 21.4704C97.9845 22.0926 100.85 22.5392 103.783 22.7945C105.443 22.938 107.093 23.0178 108.733 23.0337L108.836 33.0251C103.809 32.9932 98.719 32.4349 93.6293 31.3129C93.7897 29.6751 93.9914 28.0427 94.2448 26.4209C94.5138 24.6928 94.8293 23.0391 95.1862 21.4704ZM121.974 21.832C122.652 24.9001 123.153 28.1969 123.469 31.6213C118.731 32.5625 113.879 33.0463 108.966 33.0251L109.028 23.0391C113.44 23.071 117.774 22.6562 121.979 21.832H121.974Z" fill="black"/>
</g>
</g>
</g>
<path d="M0 48.6995V37.0703H3.33103C4.15862 37.0703 4.92414 37.1654 5.62759 37.3557C6.34138 37.5459 6.96207 37.8729 7.48966 38.3307C8.02759 38.7766 8.44655 39.3712 8.75172 40.1144C9.05172 40.8635 9.2069 41.791 9.2069 42.8968C9.2069 44.0086 9.05172 44.9361 8.75172 45.6793C8.44655 46.4106 8.02759 47.0051 7.48966 47.4629C6.96207 47.9088 6.34138 48.2239 5.62759 48.4142C4.92414 48.6044 4.15862 48.6995 3.33103 48.6995H0ZM2.4 46.3927H3.37241C3.81207 46.3927 4.23103 46.357 4.63448 46.2738C5.03276 46.1787 5.38965 46.0122 5.71034 45.7744C6.02586 45.5366 6.27414 45.1917 6.45517 44.728C6.63103 44.2702 6.72414 43.6578 6.72414 42.8968C6.72414 42.1239 6.63103 41.5056 6.45517 41.0418C6.27414 40.5662 6.02586 40.2095 5.71034 39.9717C5.38965 39.7339 5.03276 39.5793 4.63448 39.496C4.23103 39.4009 3.81207 39.3534 3.37241 39.3534H2.4V46.3927Z" fill="black"/>
<path d="M10.3867 48.6995V37.0703H18.166V39.496H12.7867V41.5175H16.0764V43.9194H12.7867V46.2738H18.166V48.6995H10.3867Z" fill="black"/>
</svg>
