<svg width="28" height="28" viewBox="0 0 28 28" fill="none" xmlns="http://www.w3.org/2000/svg">
<g id="instagram">
<path id="Vector" d="M3 8.5C3 7.04131 3.57946 5.64236 4.61091 4.61091C5.64236 3.57946 7.04131 3 8.5 3H19.5C20.9587 3 22.3576 3.57946 23.3891 4.61091C24.4205 5.64236 25 7.04131 25 8.5V19.5C25 20.9587 24.4205 22.3576 23.3891 23.3891C22.3576 24.4205 20.9587 25 19.5 25H8.5C7.04131 25 5.64236 24.4205 4.61091 23.3891C3.57946 22.3576 3 20.9587 3 19.5V8.5Z" stroke="white" stroke-width="4.16667" stroke-linecap="round" stroke-linejoin="round"/>
<path id="Vector_2" d="M20.1875 7.8125V7.82625M9.875 14C9.875 15.094 10.3096 16.1432 11.0832 16.9168C11.8568 17.6904 12.906 18.125 14 18.125C15.094 18.125 16.1432 17.6904 16.9168 16.9168C17.6904 16.1432 18.125 15.094 18.125 14C18.125 12.906 17.6904 11.8568 16.9168 11.0832C16.1432 10.3096 15.094 9.875 14 9.875C12.906 9.875 11.8568 10.3096 11.0832 11.0832C10.3096 11.8568 9.875 12.906 9.875 14Z" stroke="white" stroke-width="4.16667" stroke-linecap="round" stroke-linejoin="round"/>
</g>
</svg>
