<svg width="176" height="176" viewBox="0 0 176 176" fill="none" xmlns="http://www.w3.org/2000/svg">
<mask id="mask0_447_1952" style="mask-type:luminance" maskUnits="userSpaceOnUse" x="6" y="7" width="164" height="162">
<path d="M6.33203 7.58496H169.675V168.416H6.33203V7.58496Z" fill="white"/>
</mask>
<g mask="url(#mask0_447_1952)">
<mask id="mask1_447_1952" style="mask-type:luminance" maskUnits="userSpaceOnUse" x="6" y="7" width="164" height="162">
<path d="M87.9997 7.58496C42.896 7.58496 6.33203 43.588 6.33203 88.0005C6.33203 132.413 42.896 168.416 87.9997 168.416C133.103 168.416 169.667 132.413 169.667 88.0005C169.667 43.588 133.103 7.58496 87.9997 7.58496Z" fill="white"/>
</mask>
<g mask="url(#mask1_447_1952)">
<path d="M6.33203 7.58496H169.675V168.416H6.33203V7.58496Z" fill="white"/>
</g>
</g>
<path d="M143.913 121.196C141.335 125.202 138.338 128.911 134.984 132.264C122.96 144.289 106.348 151.726 87.998 151.726C69.6481 151.726 53.0363 144.289 41.0115 132.264C37.6583 128.911 34.6608 125.202 32.0831 121.196H35.9918C38.1643 124.336 40.6155 127.273 43.3105 129.967C54.745 141.401 70.5465 148.476 87.998 148.476C105.451 148.476 121.251 141.401 132.687 129.967C135.38 127.273 137.832 124.338 140.006 121.196H143.913ZM87.998 18.8281C106.348 18.8281 122.96 26.2641 134.984 38.2908C146.577 49.883 153.904 65.7358 154.418 83.301H151.165C150.654 66.6341 143.689 51.5916 132.687 40.588C121.251 29.1516 105.449 22.0786 87.998 22.0786C70.5446 22.0786 54.745 29.1516 43.3086 40.588C32.305 51.5916 25.342 66.6341 24.8305 83.301H21.5781C22.0915 65.7358 29.4193 49.883 41.0115 38.2908C53.0363 26.2641 69.6481 18.8281 87.998 18.8281Z" fill="#0D0D0D"/>
<mask id="mask2_447_1952" style="mask-type:luminance" maskUnits="userSpaceOnUse" x="19" y="16" width="138" height="138">
<path d="M19.2422 16.7842H156.757V153.712H19.2422V16.7842Z" fill="white"/>
</mask>
<g mask="url(#mask2_447_1952)">
<path d="M146.314 121.196C143.508 125.744 140.182 129.941 136.422 133.701C124.028 146.094 106.909 153.76 87.9979 153.76C69.0871 153.76 51.9656 146.094 39.5741 133.701C35.8139 129.941 32.4901 125.744 29.6814 121.196H30.6384C33.3554 125.526 36.5509 129.528 40.1479 133.125C52.3946 145.372 69.3108 152.946 87.9979 152.946C106.683 152.946 123.601 145.372 135.848 133.125C139.447 129.528 142.64 125.526 145.357 121.196H146.314ZM87.9979 16.7949C106.909 16.7949 124.028 24.4601 136.422 36.8534C148.381 48.8123 155.938 65.1748 156.451 83.3009H155.639C155.124 65.4003 147.66 49.2394 135.848 37.4273C123.601 25.1824 106.683 17.6089 87.9979 17.6089C69.3108 17.6089 52.3946 25.1824 40.1479 37.4273C28.3358 49.2394 20.8723 65.4003 20.3589 83.3009H19.5449C20.0583 65.1748 27.6134 48.8123 39.5741 36.8534C51.9656 24.4601 69.0871 16.7949 87.9979 16.7949Z" fill="#0D0D0D"/>
</g>
<path d="M19.6116 81.6748H156.387L163.794 84.9253H12.2031L19.6116 81.6748Z" fill="#0D0D0D"/>
<path d="M50.3291 122.821H30.718L12.2031 119.57H50.3291V122.821Z" fill="#0D0D0D"/>
<path d="M145.279 122.821H125.668V119.57H163.794L145.279 122.821Z" fill="#0D0D0D"/>
<path fill-rule="evenodd" clip-rule="evenodd" d="M65.1953 71.2672C65.1953 71.2672 66.2458 74.2537 71.3388 71.313C76.4336 68.3724 94.9485 55.044 94.9485 55.044C94.9485 55.044 96.472 53.9385 97.6361 54.6425C98.8003 55.3465 100.08 57.2715 105.158 54.5949C110.235 51.9182 111.953 46.6309 110.931 44.8617C109.912 43.0944 104.473 41.9375 99.6161 44.9974C94.7596 48.0554 95.7863 50.127 95.8138 51.4855C95.8413 52.8459 94.1235 53.6122 94.1235 53.6122C94.1235 53.6122 73.3225 62.9842 68.2295 65.9249C63.1346 68.8655 65.1953 71.2672 65.1953 71.2672Z" fill="#0D0D0D"/>
<path fill-rule="evenodd" clip-rule="evenodd" d="M63.789 48.9761C64.0072 48.5985 64.493 48.4701 64.8707 48.6865L67.0688 49.9551L72.0445 52.828C72.4222 53.0461 72.908 52.916 73.1262 52.5383C73.3425 52.1606 73.2123 51.6748 72.8365 51.4566L66.0733 47.5516L65.6608 47.3151C65.285 47.097 65.1548 46.6111 65.373 46.2335C65.4885 46.0336 65.681 45.9016 65.8918 45.8558C66.077 45.8173 66.2787 45.843 66.4528 45.9438L73.6267 50.0871C74.0043 50.3035 74.4902 50.1733 74.7102 49.7975C74.9265 49.4198 74.7963 48.934 74.4187 48.7158L67.2448 44.5743C67.0688 44.4716 66.946 44.3121 66.8892 44.1325C66.8213 43.9253 66.8397 43.6925 66.9552 43.4926C67.1733 43.115 67.6592 42.9848 68.0368 43.203L68.4475 43.4395L75.2107 47.3445C75.5883 47.5626 76.0742 47.4325 76.2923 47.0548C76.5105 46.6771 76.3803 46.1913 76.0027 45.9731L71.027 43.1003L68.8288 41.8316C68.4512 41.6135 68.321 41.1276 68.5373 40.75C68.7555 40.3723 69.2432 40.2421 69.619 40.4603L76.637 44.512L77.4803 44.9978C82.335 48.0558 81.3083 50.1275 81.2808 51.4878C81.2552 52.8463 82.973 53.6145 82.973 53.6145C82.973 53.6145 103.774 62.9846 108.867 65.9253C113.96 68.866 111.899 71.2676 111.899 71.2676C111.899 71.2676 110.849 74.2541 105.756 71.3135C100.663 68.3728 82.1462 55.0445 82.1462 55.0445C82.1462 55.0445 80.6227 53.939 79.4585 54.643C78.2962 55.347 77.0147 57.272 71.9382 54.5953L71.0948 54.1076L64.0787 50.0578C63.7028 49.8396 63.5708 49.3538 63.789 48.9761Z" fill="#0D0D0D"/>
<path d="M145.273 66.669C145.273 68.6032 144.49 70.3558 143.222 71.6245C141.953 72.8932 140.2 73.6778 138.264 73.6778C136.33 73.6778 134.577 72.8932 133.309 71.6245C132.04 70.3558 131.255 68.6032 131.255 66.669C131.255 64.733 132.042 62.9803 133.309 61.7117C134.577 60.443 136.328 59.6602 138.264 59.6602C141.583 59.6602 144.586 61.004 146.76 63.1783C148.932 65.3508 150.276 68.3538 150.276 71.6703C150.276 74.9868 148.932 77.9917 146.76 80.1642C144.586 82.3385 141.583 83.6823 138.264 83.6823C134.948 83.6823 131.945 82.3385 129.77 80.1642C127.999 78.3932 126.778 76.0703 126.388 73.4762C122.037 76.2133 108.276 83.7062 87.9979 83.7062C67.7194 83.7062 53.9584 76.2133 49.6079 73.4762C49.2156 76.0703 47.9964 78.3932 46.2236 80.1642C44.0511 82.3385 41.0463 83.6823 37.7298 83.6823C34.4133 83.6823 31.4103 82.3385 29.2378 80.1642C27.0634 77.9917 25.7178 74.9868 25.7178 71.6703C25.7178 68.3538 27.0634 65.3508 29.2378 63.1783C31.4103 61.004 34.4133 59.6602 37.7298 59.6602C39.6658 59.6602 41.4184 60.443 42.6871 61.7117C43.9558 62.9803 44.7386 64.733 44.7386 66.669C44.7386 68.6032 43.9558 70.3558 42.6871 71.6245C41.4184 72.8932 39.6658 73.6778 37.7298 73.6778C35.7956 73.6778 34.0429 72.8932 32.7743 71.6245C31.5056 70.3558 30.7209 68.6032 30.7209 66.669C31.4176 68.1155 34.8643 66.042 34.2098 70.189C35.1118 71.0892 36.3548 71.6465 37.7298 71.6465C39.1029 71.6465 40.3496 71.0892 41.2498 70.189C42.1499 69.287 42.7073 68.044 42.7073 66.669C42.7073 65.294 42.1499 64.0492 41.2498 63.149C40.3478 62.2488 39.1048 61.6915 37.7298 61.6915C34.9743 61.6915 32.4791 62.808 30.6733 64.6138C28.8656 66.4197 27.7491 68.9148 27.7491 71.6722C27.7491 74.4277 28.8656 76.9228 30.6733 78.7287C32.4791 80.5345 34.9743 81.651 37.7298 81.651C40.4853 81.651 42.9823 80.5345 44.7881 78.7287C46.5939 76.9228 47.7104 74.4277 47.7104 71.6722V69.6812L49.3219 70.8545C49.3641 70.8857 63.8786 81.6748 87.9961 81.6748C112.115 81.6748 126.63 70.8857 126.674 70.8545L128.284 69.6812V71.6722C128.284 74.4277 129.402 76.9228 131.208 78.7287C133.014 80.5345 135.509 81.651 138.264 81.651C141.02 81.651 143.515 80.5345 145.321 78.7287C147.127 76.9228 148.245 74.4277 148.245 71.6722C148.245 68.9148 147.127 66.4197 145.321 64.6138C143.515 62.808 141.02 61.6915 138.264 61.6915C136.889 61.6915 135.644 62.2488 134.744 63.149C133.844 64.0492 133.287 65.294 133.287 66.669C133.287 68.044 133.844 69.287 134.744 70.189C135.646 71.0892 136.889 71.6465 138.264 71.6465C139.639 71.6465 140.884 71.0892 141.784 70.189C141.132 66.042 144.578 68.1155 145.273 66.669Z" fill="#0D0D0D"/>
<path d="M16.1598 87.4854V96.6667C16.1598 98.0857 15.7583 99.1784 14.9571 99.9447C14.1596 100.713 13.0816 101.096 11.7231 101.096C10.3041 101.096 9.16563 100.693 8.30579 99.886C7.44963 99.0794 7.02246 97.9354 7.02246 96.454H10.2858C10.2858 97.0169 10.3995 97.4422 10.6305 97.73C10.8596 98.0197 11.1915 98.1627 11.6278 98.1627C12.0275 98.1627 12.3355 98.0362 12.5518 97.7814C12.7718 97.5229 12.8818 97.1507 12.8818 96.6667V87.4854H16.1598Z" fill="#0D0D0D"/>
<path d="M27.1971 98.5807H22.1664L21.3671 100.964H17.9277L22.8044 87.4854H26.6031L31.4797 100.964H28.0037L27.1971 98.5807ZM26.3537 96.0507L24.6817 91.1154L23.0317 96.0507H26.3537Z" fill="#0D0D0D"/>
<path d="M32.3984 94.2024C32.3984 92.8732 32.6863 91.6871 33.2638 90.6457C33.8394 89.6007 34.6443 88.7867 35.6764 88.2037C36.7068 87.6226 37.8764 87.3311 39.1818 87.3311C40.7804 87.3311 42.1481 87.7546 43.2884 88.5997C44.4269 89.4467 45.1878 90.5981 45.5691 92.0537H41.9611C41.6916 91.4927 41.3103 91.0637 40.8171 90.7704C40.3276 90.4771 39.7684 90.3304 39.1378 90.3304C38.1258 90.3304 37.3063 90.6824 36.6811 91.3864C36.0541 92.0904 35.7424 93.0291 35.7424 94.2024C35.7424 95.3812 36.0541 96.3217 36.6811 97.0257C37.3063 97.7297 38.1258 98.0817 39.1378 98.0817C39.7684 98.0817 40.3276 97.9351 40.8171 97.6417C41.3103 97.3484 41.6916 96.9212 41.9611 96.3584H45.5691C45.1878 97.8159 44.4269 98.9654 43.2884 99.8051C42.1481 100.641 40.7804 101.059 39.1818 101.059C37.8764 101.059 36.7068 100.769 35.6764 100.186C34.6443 99.6052 33.8394 98.7967 33.2638 97.7591C32.6863 96.7232 32.3984 95.5371 32.3984 94.2024Z" fill="#0D0D0D"/>
<path d="M50.8693 87.4854V100.964H47.584V87.4854H50.8693Z" fill="#0D0D0D"/>
<path d="M65.3031 100.964H62.0251L56.5324 92.648V100.964H53.2471V87.4854H56.5324L62.0251 95.838V87.4854H65.3031V100.964Z" fill="#0D0D0D"/>
<path d="M77.3777 87.4854V90.118H73.8064V100.964H70.5284V90.118H66.957V87.4854H77.3777Z" fill="#0D0D0D"/>
<path d="M85.4007 101.095C84.1339 101.095 82.9734 100.802 81.9174 100.215C80.8614 99.6249 80.0217 98.8036 79.402 97.7513C78.7805 96.6953 78.4707 95.5073 78.4707 94.1873C78.4707 92.8673 78.7805 91.6848 79.402 90.6379C80.0217 89.5874 80.8614 88.7679 81.9174 88.1813C82.9734 87.5909 84.1339 87.2939 85.4007 87.2939C86.6712 87.2939 87.8354 87.5909 88.8914 88.1813C89.9474 88.7679 90.7779 89.5874 91.3847 90.6379C91.9897 91.6848 92.294 92.8673 92.294 94.1873C92.294 95.5073 91.986 96.6953 91.37 97.7513C90.7577 98.8036 89.9272 99.6249 88.8767 100.215C87.8299 100.802 86.6712 101.095 85.4007 101.095ZM85.4007 98.1033C86.475 98.1033 87.3367 97.7476 87.982 97.0326C88.631 96.3139 88.9574 95.3661 88.9574 94.1873C88.9574 92.9956 88.631 92.0441 87.982 91.3346C87.3367 90.6269 86.475 90.2713 85.4007 90.2713C84.3154 90.2713 83.45 90.6233 82.8047 91.3273C82.1594 92.0313 81.8367 92.9846 81.8367 94.1873C81.8367 95.3753 82.1594 96.3268 82.8047 97.0399C83.45 97.7494 84.3154 98.1033 85.4007 98.1033Z" fill="#0D0D0D"/>
<path d="M94.8655 87.4854H98.2315L96.0755 92.6334H93.8682L94.8655 87.4854Z" fill="#0D0D0D"/>
<path d="M105.022 101.095C104.039 101.095 103.155 100.938 102.374 100.619C101.592 100.296 100.966 99.8229 100.497 99.1959C100.031 98.5708 99.7875 97.8154 99.7637 96.9299H103.254C103.308 97.4286 103.482 97.8099 103.775 98.0739C104.068 98.3379 104.452 98.4699 104.926 98.4699C105.414 98.4699 105.799 98.3581 106.078 98.1326C106.36 97.9089 106.503 97.5973 106.503 97.2013C106.503 96.8694 106.389 96.5963 106.166 96.3799C105.94 96.1599 105.663 95.9803 105.337 95.8373C105.014 95.6961 104.552 95.5366 103.951 95.3606C103.08 95.0929 102.369 94.8234 101.817 94.5539C101.269 94.2863 100.794 93.8903 100.394 93.3659C99.9983 92.8379 99.8003 92.1523 99.8003 91.3053C99.8003 90.0549 100.255 89.0741 101.164 88.3646C102.074 87.6514 103.256 87.2939 104.714 87.2939C106.199 87.2939 107.398 87.6514 108.307 88.3646C109.216 89.0741 109.702 90.0623 109.766 91.3273H106.217C106.188 90.8928 106.026 90.5499 105.733 90.3006C105.44 90.0513 105.062 89.9266 104.604 89.9266C104.208 89.9266 103.887 90.0329 103.643 90.2419C103.397 90.4528 103.276 90.7553 103.276 91.1513C103.276 91.5876 103.482 91.9268 103.892 92.1706C104.303 92.4163 104.943 92.6766 105.814 92.9553C106.683 93.2541 107.39 93.5383 107.933 93.8059C108.476 94.0699 108.945 94.4586 109.341 94.9719C109.737 95.4853 109.935 96.1453 109.935 96.9519C109.935 97.7201 109.739 98.4168 109.348 99.0419C108.962 99.6689 108.397 100.168 107.654 100.538C106.91 100.91 106.034 101.095 105.022 101.095Z" fill="#0D0D0D"/>
<path d="M124.799 87.4854V90.118H119.306V92.956H123.413V95.508H119.306V100.964H116.021V87.4854H124.799Z" fill="#0D0D0D"/>
<path d="M132.894 101.095C131.627 101.095 130.467 100.802 129.411 100.215C128.355 99.6249 127.515 98.8036 126.895 97.7513C126.274 96.6953 125.964 95.5073 125.964 94.1873C125.964 92.8673 126.274 91.6848 126.895 90.6379C127.515 89.5874 128.355 88.7679 129.411 88.1813C130.467 87.5909 131.627 87.2939 132.894 87.2939C134.164 87.2939 135.329 87.5909 136.385 88.1813C137.441 88.7679 138.271 89.5874 138.878 90.6379C139.483 91.6848 139.787 92.8673 139.787 94.1873C139.787 95.5073 139.479 96.6953 138.863 97.7513C138.251 98.8036 137.42 99.6249 136.37 100.215C135.323 100.802 134.164 101.095 132.894 101.095ZM132.894 98.1033C133.968 98.1033 134.83 97.7476 135.475 97.0326C136.124 96.3139 136.451 95.3661 136.451 94.1873C136.451 92.9956 136.124 92.0441 135.475 91.3346C134.83 90.6269 133.968 90.2713 132.894 90.2713C131.809 90.2713 130.943 90.6233 130.298 91.3273C129.653 92.0313 129.33 92.9846 129.33 94.1873C129.33 95.3753 129.653 96.3268 130.298 97.0399C130.943 97.7494 131.809 98.1033 132.894 98.1033Z" fill="#0D0D0D"/>
<path d="M147.983 101.095C146.716 101.095 145.555 100.802 144.499 100.215C143.443 99.6249 142.604 98.8036 141.984 97.7513C141.363 96.6953 141.053 95.5073 141.053 94.1873C141.053 92.8673 141.363 91.6848 141.984 90.6379C142.604 89.5874 143.443 88.7679 144.499 88.1813C145.555 87.5909 146.716 87.2939 147.983 87.2939C149.253 87.2939 150.417 87.5909 151.473 88.1813C152.529 88.7679 153.36 89.5874 153.967 90.6379C154.572 91.6848 154.876 92.8673 154.876 94.1873C154.876 95.5073 154.568 96.6953 153.952 97.7513C153.34 98.8036 152.509 99.6249 151.459 100.215C150.412 100.802 149.253 101.095 147.983 101.095ZM147.983 98.1033C149.057 98.1033 149.919 97.7476 150.564 97.0326C151.213 96.3139 151.539 95.3661 151.539 94.1873C151.539 92.9956 151.213 92.0441 150.564 91.3346C149.919 90.6269 149.057 90.2713 147.983 90.2713C146.897 90.2713 146.032 90.6233 145.387 91.3273C144.741 92.0313 144.419 92.9846 144.419 94.1873C144.419 95.3753 144.741 96.3268 145.387 97.0399C146.032 97.7494 146.897 98.1033 147.983 98.1033Z" fill="#0D0D0D"/>
<path d="M161.752 87.4854C163.169 87.4854 164.408 87.7695 165.47 88.336C166.535 88.8989 167.358 89.689 167.941 90.7047C168.522 91.7222 168.814 92.8955 168.814 94.2247C168.814 95.5447 168.522 96.718 167.941 97.7447C167.358 98.7677 166.533 99.5597 165.463 100.121C164.396 100.684 163.16 100.964 161.752 100.964H156.699V87.4854H161.752ZM161.539 98.126C162.78 98.126 163.747 97.7869 164.436 97.1067C165.129 96.4284 165.477 95.4677 165.477 94.2247C165.477 92.9835 165.129 92.0174 164.436 91.328C163.747 90.635 162.78 90.2867 161.539 90.2867H159.985V98.126H161.539Z" fill="#0D0D0D"/>
<path d="M60.69 123.4L59.062 120.789H57.9473V123.4H57.0967V117.005H59.0767C59.8723 117.005 60.4425 117.152 60.7853 117.445C61.1318 117.738 61.306 118.191 61.306 118.802C61.306 119.326 61.1997 119.74 60.9907 120.048C60.7798 120.353 60.437 120.554 59.964 120.657L61.6947 123.4H60.69ZM60.426 118.868C60.426 118.448 60.3178 118.16 60.1033 118.002C59.887 117.841 59.5423 117.76 59.0693 117.76H57.9473V120.034H59.018C59.3737 120.034 59.656 119.997 59.8613 119.924C60.0667 119.847 60.2097 119.726 60.294 119.564C60.382 119.399 60.426 119.166 60.426 118.868Z" fill="#0D0D0D"/>
<path d="M62.8125 123.4V117.005H66.7212V117.775H63.6632V119.645H66.2738V120.422H63.6632V122.622H66.7212V123.4H62.8125Z" fill="#0D0D0D"/>
<path d="M72.4287 121.647C72.4287 122.245 72.2325 122.709 71.842 123.04C71.4497 123.369 70.8759 123.532 70.1187 123.532C69.5467 123.532 69.0664 123.431 68.6814 123.231C68.2945 123.026 67.9792 122.71 67.7354 122.285L68.432 121.823C68.7932 122.459 69.3505 122.776 70.104 122.776C70.5587 122.776 70.9144 122.681 71.1747 122.49C71.4332 122.3 71.5634 122.041 71.5634 121.713C71.5634 121.528 71.5212 121.372 71.4387 121.244C71.3544 121.112 71.2444 121.002 71.1087 120.914C70.9767 120.826 70.8227 120.756 70.6467 120.701C70.4707 120.648 70.2874 120.597 70.0967 120.547C69.7777 120.47 69.4844 120.391 69.2167 120.312C68.9472 120.23 68.7125 120.125 68.5127 119.997C68.311 119.865 68.1552 119.7 68.0434 119.498C67.9297 119.293 67.8747 119.033 67.8747 118.714C67.8747 118.147 68.0544 117.7 68.4174 117.372C68.784 117.04 69.3304 116.873 70.06 116.873C70.6357 116.873 71.0959 116.981 71.4387 117.196C71.7852 117.412 72.0584 117.685 72.26 118.017L71.5854 118.501C71.4185 118.222 71.215 118.008 70.9767 117.856C70.7365 117.705 70.4304 117.628 70.06 117.628C69.6439 117.628 69.3194 117.722 69.0847 117.907C68.8537 118.089 68.74 118.332 68.74 118.64C68.74 118.807 68.773 118.947 68.8427 119.058C68.9105 119.167 69.0077 119.26 69.136 119.337C69.268 119.41 69.4294 119.475 69.62 119.528C69.8144 119.583 70.038 119.638 70.2874 119.696C70.5752 119.775 70.8484 119.858 71.1087 119.946C71.3727 120.03 71.6019 120.142 71.798 120.283C71.9924 120.421 72.1464 120.598 72.26 120.818C72.3719 121.035 72.4287 121.31 72.4287 121.647Z" fill="#0D0D0D"/>
<path d="M76.1253 117.775V123.4H75.2746V117.775H73.1553V117.005H78.2446V117.775H76.1253Z" fill="#0D0D0D"/>
<path d="M78.6689 123.4L80.8543 117.005H81.9616L84.1469 123.4H83.2449L82.6949 121.735H80.0843L79.5416 123.4H78.6689ZM80.3483 120.958H82.4236L81.3823 117.848L80.3483 120.958Z" fill="#0D0D0D"/>
<path d="M90.0318 120.73C90.0318 121.431 89.953 121.982 89.7972 122.388C89.6395 122.789 89.3938 123.082 89.0565 123.268C88.7192 123.453 88.2462 123.546 87.6412 123.546C87.0398 123.546 86.5632 123.453 86.2112 123.268C85.8628 123.077 85.6117 122.78 85.4558 122.373C85.3037 121.962 85.2285 121.416 85.2285 120.73V117.005H86.0792V120.635C86.0792 121.198 86.1305 121.63 86.2332 121.933C86.3358 122.237 86.4972 122.454 86.7172 122.586C86.9372 122.718 87.2397 122.784 87.6265 122.784C88.017 122.784 88.3232 122.721 88.5432 122.593C88.7668 122.461 88.9282 122.254 89.0272 121.97C89.1298 121.682 89.1812 121.244 89.1812 120.657V117.005H90.0318V120.73Z" fill="#0D0D0D"/>
<path d="M95.3131 123.4L93.6851 120.789H92.5704V123.4H91.7197V117.005H93.6997C94.4954 117.005 95.0656 117.152 95.4084 117.445C95.7549 117.738 95.9291 118.191 95.9291 118.802C95.9291 119.326 95.8227 119.74 95.6137 120.048C95.4029 120.353 95.0601 120.554 94.5871 120.657L96.3177 123.4H95.3131ZM95.0491 118.868C95.0491 118.448 94.9409 118.16 94.7264 118.002C94.5101 117.841 94.1654 117.76 93.6924 117.76H92.5704V120.034H93.6411C93.9967 120.034 94.2791 119.997 94.4844 119.924C94.6897 119.847 94.8327 119.726 94.9171 119.564C95.0051 119.399 95.0491 119.166 95.0491 118.868Z" fill="#0D0D0D"/>
<path d="M96.8262 123.4L99.0115 117.005H100.119L102.304 123.4H101.402L100.852 121.735H98.2415L97.6988 123.4H96.8262ZM98.5055 120.958H100.581L99.5395 117.848L98.5055 120.958Z" fill="#0D0D0D"/>
<path d="M107.089 123.4L104.207 117.914V123.4H103.386V117.005H104.632L107.28 122.028V117.005H108.101V123.4H107.089Z" fill="#0D0D0D"/>
<path d="M112.106 117.775V123.4H111.255V117.775H109.136V117.005H114.225V117.775H112.106Z" fill="#0D0D0D"/>
<path d="M115.259 123.4V117.005H119.167V117.775H116.109V119.645H118.72V120.422H116.109V122.622H119.167V123.4H115.259Z" fill="#0D0D0D"/>
<path d="M70.6731 137.771C70.4128 138.299 70.1323 138.688 69.8298 138.937C69.5255 139.186 69.1918 139.311 68.8251 139.311C68.4585 139.315 68.0056 139.188 67.4685 138.93L66.1338 138.27L68.2898 133.877L69.6171 134.53C70.1341 134.784 70.5081 135.061 70.7391 135.358C70.9738 135.657 71.0856 136.002 71.0765 136.392C71.0655 136.785 70.9316 137.243 70.6731 137.771ZM69.7491 137.316C69.9398 136.931 70.0425 136.627 70.0571 136.407C70.0718 136.187 70.0076 135.994 69.8665 135.828C69.729 135.657 69.4815 135.483 69.1258 135.307L68.7811 135.138L67.4318 137.896L67.7765 138.064C68.1321 138.24 68.4181 138.328 68.6345 138.328C68.849 138.332 69.0415 138.259 69.2138 138.108C69.3843 137.958 69.5621 137.694 69.7491 137.316Z" fill="#0D0D0D"/>
<path d="M70.5654 140.36L72.2741 135.776L75.2588 136.891L74.9508 137.72L72.9048 136.957L72.5454 137.932L74.2688 138.578L73.9534 139.406L72.2301 138.761L71.8194 139.861L73.8654 140.624L73.5501 141.474L70.5654 140.36Z" fill="#0D0D0D"/>
<path d="M78.3539 141.355C78.2256 141.824 77.9726 142.143 77.5912 142.315C77.2136 142.486 76.7222 142.491 76.1172 142.33C75.6956 142.216 75.3509 142.048 75.0832 141.824C74.8192 141.604 74.6304 141.314 74.5186 140.951L75.3986 140.577C75.4756 140.759 75.5526 140.904 75.6259 141.01C75.6992 141.113 75.7964 141.206 75.9192 141.289C76.0457 141.367 76.1979 141.428 76.3739 141.472C76.6324 141.545 76.8469 141.558 77.0192 141.509C77.1952 141.455 77.3071 141.336 77.3566 141.149C77.3804 141.047 77.3749 140.955 77.3419 140.871C77.3126 140.783 77.2502 140.702 77.1586 140.629C77.0706 140.552 76.9092 140.443 76.6746 140.306C76.4491 140.179 76.2364 140.053 76.0366 139.925C75.8349 139.798 75.6699 139.661 75.5379 139.514C75.4096 139.364 75.3216 139.195 75.2739 139.008C75.2244 138.823 75.2317 138.603 75.2959 138.348C75.4169 137.908 75.6644 137.604 76.0366 137.431C76.4124 137.261 76.8817 137.252 77.4446 137.402C78.2604 137.622 78.7646 138.058 78.9552 138.707L78.0606 139.081C77.9872 138.847 77.8791 138.667 77.7379 138.539C77.5949 138.407 77.4152 138.311 77.1952 138.253C76.9752 138.194 76.7846 138.187 76.6232 138.231C76.4619 138.275 76.3592 138.383 76.3152 138.553C76.2712 138.711 76.3097 138.847 76.4326 138.964C76.5591 139.081 76.7919 139.228 77.1292 139.404C77.3144 139.512 77.4977 139.624 77.6792 139.741C77.8589 139.855 78.0111 139.983 78.1339 140.13C78.2604 140.277 78.3466 140.451 78.3906 140.651C78.4382 140.847 78.4272 141.081 78.3539 141.355Z" fill="#0D0D0D"/>
<path d="M83.159 141.127C83.0655 141.71 82.9115 142.164 82.697 142.491C82.4807 142.819 82.1983 143.035 81.8463 143.143C81.498 143.25 81.0323 143.257 80.4457 143.165L78.9717 142.931L79.749 138.105L81.2083 138.34C81.7803 138.434 82.2203 138.589 82.5283 138.809C82.84 139.026 83.0453 139.321 83.1443 139.697C83.247 140.074 83.2507 140.551 83.159 141.127ZM82.147 140.958C82.2148 140.533 82.224 140.214 82.1763 139.997C82.1323 139.783 82.0168 139.614 81.8317 139.491C81.6502 139.37 81.3642 139.279 80.9737 139.22L80.5923 139.154L80.101 142.19L80.4823 142.256C80.8728 142.315 81.1735 142.315 81.3843 142.256C81.5933 142.197 81.7583 142.071 81.8757 141.875C81.993 141.68 82.0828 141.374 82.147 140.958Z" fill="#0D0D0D"/>
<path d="M83.8232 143.63L84.1239 138.746L87.2992 138.944L87.2479 139.824L85.0699 139.692L85.0039 140.733L86.8372 140.843L86.7786 141.731L84.9452 141.621L84.8792 142.787L87.0572 142.919L86.9986 143.828L83.8232 143.63Z" fill="#0D0D0D"/>
<path d="M90.9121 143.223C90.9213 143.428 90.8828 143.575 90.7948 143.663C90.7068 143.751 90.5601 143.8 90.3548 143.809C90.1348 143.819 89.9808 143.778 89.8928 143.685C89.8084 143.593 89.7644 143.456 89.7608 143.274C89.7498 143.083 89.7846 142.94 89.8634 142.841C89.9459 142.744 90.0926 142.691 90.3034 142.68C90.5234 142.671 90.6774 142.709 90.7654 142.797C90.8534 142.885 90.9011 143.028 90.9121 143.223Z" fill="#0D0D0D"/>
<path d="M95.4104 143.244L94.8824 140.01L93.7164 140.2L93.6064 139.533C93.9438 139.46 94.1931 139.379 94.3544 139.291C94.5158 139.199 94.6349 139.082 94.7138 138.939C94.7908 138.798 94.8421 138.609 94.8678 138.374L95.6158 138.257L96.4004 143.082L95.4104 143.244Z" fill="#0D0D0D"/>
<path d="M98.7266 141.515C99.0052 141.653 99.3169 141.675 99.6652 141.581C100.197 141.44 100.402 140.954 100.281 140.122C100.173 140.254 100.056 140.371 99.9292 140.474C99.8009 140.573 99.6359 140.648 99.4306 140.701C98.9502 140.83 98.5396 140.793 98.1986 140.591C97.8612 140.391 97.6247 140.034 97.4872 139.521C97.3607 139.033 97.4102 138.597 97.6339 138.215C97.8539 137.834 98.2151 137.577 98.7192 137.445C99.3352 137.28 99.8431 137.35 100.245 137.658C100.644 137.962 100.936 138.454 101.117 139.132C101.352 140.008 101.367 140.731 101.161 141.303C100.96 141.871 100.538 142.239 99.8926 142.41C99.2619 142.582 98.7559 142.577 98.3746 142.395L98.7266 141.515ZM99.3939 139.829C99.5736 139.785 99.7239 139.717 99.8412 139.623C99.9622 139.526 100.054 139.44 100.113 139.367C99.9842 138.888 99.8302 138.567 99.6506 138.406C99.4691 138.241 99.2362 138.193 98.9539 138.267C98.7284 138.331 98.5689 138.448 98.4772 138.619C98.3892 138.791 98.3782 138.998 98.4479 139.242C98.5102 139.488 98.6257 139.664 98.7926 139.77C98.9631 139.873 99.1629 139.893 99.3939 139.829Z" fill="#0D0D0D"/>
<path d="M102.91 140.292C103.207 140.405 103.526 140.398 103.864 140.27C104.381 140.075 104.535 139.569 104.326 138.752C104.227 138.898 104.12 139.028 104.003 139.14C103.889 139.248 103.735 139.338 103.541 139.412C103.072 139.584 102.657 139.586 102.302 139.419C101.946 139.254 101.675 138.924 101.488 138.429C101.312 137.95 101.317 137.512 101.502 137.116C101.689 136.717 102.027 136.425 102.514 136.244C103.11 136.02 103.622 136.042 104.047 136.31C104.476 136.574 104.817 137.036 105.066 137.696C105.383 138.546 105.466 139.263 105.316 139.844C105.169 140.427 104.784 140.834 104.164 141.069C103.548 141.3 103.044 141.344 102.654 141.201L102.91 140.292ZM103.424 138.554C103.6 138.486 103.741 138.4 103.849 138.297C103.955 138.191 104.034 138.097 104.084 138.018C103.911 137.554 103.728 137.252 103.534 137.109C103.337 136.962 103.101 136.94 102.822 137.043C102.606 137.122 102.463 137.252 102.39 137.432C102.322 137.608 102.331 137.817 102.419 138.055C102.507 138.29 102.639 138.455 102.815 138.546C102.995 138.634 103.198 138.638 103.424 138.554Z" fill="#0D0D0D"/>
<path d="M109.463 137.72L109.823 138.446L108.965 138.871L108.605 138.145L106.405 139.231L106.002 138.402L106.743 134.515L107.659 134.061L109.089 136.95L109.632 136.686L110.006 137.456L109.463 137.72ZM107.381 135.652L106.904 138.028L108.231 137.375L107.381 135.652Z" fill="#0D0D0D"/>
</svg>
