<svg width="22" height="22" viewBox="0 0 22 22" fill="none" xmlns="http://www.w3.org/2000/svg">
<g id="material-symbols:location-on">
<path id="Vector" d="M11 10.9997C11.5042 10.9997 11.9359 10.82 12.2953 10.4607C12.6546 10.1013 12.834 9.6699 12.8334 9.16634C12.8334 8.66217 12.6537 8.23042 12.2944 7.87109C11.935 7.51176 11.5036 7.3324 11 7.33301C10.4959 7.33301 10.0641 7.51267 9.70477 7.87201C9.34544 8.23134 9.16608 8.66279 9.16669 9.16634C9.16669 9.67051 9.34635 10.1023 9.70569 10.4616C10.065 10.8209 10.4965 11.0003 11 10.9997ZM11 20.1663C8.5403 18.0733 6.7033 16.1293 5.48902 14.3345C4.27474 12.5397 3.6673 10.8781 3.66669 9.34967C3.66669 7.05801 4.40399 5.23231 5.8786 3.87259C7.35321 2.51287 9.06035 1.83301 11 1.83301C12.9403 1.83301 14.6477 2.51287 16.1224 3.87259C17.597 5.23231 18.334 7.05801 18.3334 9.34967C18.3334 10.8775 17.7259 12.5391 16.511 14.3345C15.2961 16.13 13.4591 18.0739 11 20.1663Z" fill="#2CFFBC"/>
</g>
</svg>
