<svg width="146" height="80" viewBox="0 0 146 80" fill="none" xmlns="http://www.w3.org/2000/svg">
<g id="Group 8">
<g id="Group">
<g id="Group_2">
<g id="Group_3">
<path id="Vector" d="M36.9266 48.5493C34.9404 48.5493 33.2646 48.0855 31.8991 47.1461C30.5439 46.2127 29.587 44.9047 29.0232 43.2222L32.9542 41.605C33.2128 42.6039 33.6991 43.353 34.4025 43.8405C35.106 44.3161 35.9542 44.5539 36.9473 44.5539C37.4853 44.5539 37.9922 44.4945 38.4784 44.3637C38.9749 44.221 39.3887 43.9951 39.7197 43.674C40.0508 43.3411 40.2163 42.9011 40.2163 42.3423C40.2163 41.6169 39.906 41.0521 39.2853 40.6538C38.6646 40.2435 37.8577 39.9284 36.8646 39.7025L34.6508 39.2031C33.668 38.9831 32.7525 38.6323 31.8991 38.1567C31.056 37.6811 30.3784 37.0568 29.8715 36.2779C29.3594 35.4872 29.106 34.4943 29.106 33.3052C29.106 32.1637 29.3335 31.1887 29.7887 30.3801C30.2439 29.5596 30.8491 28.8818 31.6094 28.3587C32.3646 27.8355 33.2025 27.449 34.1128 27.1934C35.0232 26.9258 35.9335 26.7891 36.8439 26.7891C37.837 26.7891 38.7887 26.9496 39.6991 27.2647C40.6197 27.5857 41.4473 28.0733 42.1818 28.7392C42.9111 29.3932 43.4697 30.2612 43.8577 31.3551L39.9473 32.9723C39.6991 32.2767 39.2697 31.7356 38.6646 31.3551C38.0542 30.9746 37.3249 30.7844 36.4715 30.7844C35.6284 30.7844 34.9249 30.9627 34.3611 31.3076C33.8077 31.6584 33.5335 32.1578 33.5335 32.8058C33.5335 33.329 33.7249 33.7809 34.1128 34.1614C34.4956 34.53 35.0025 34.7797 35.6232 34.9224L38.0853 35.4931C38.8301 35.6715 39.5801 35.8915 40.3404 36.159C41.1111 36.4147 41.8197 36.7536 42.4715 37.1816C43.118 37.6097 43.6404 38.1805 44.0439 38.8939C44.4422 39.6074 44.6439 40.5111 44.6439 41.605C44.6439 42.7168 44.4163 43.7097 43.9611 44.5777C43.5163 45.4339 42.9266 46.1652 42.1818 46.7656C41.4473 47.3542 40.6301 47.8001 39.7197 48.0974C38.8094 48.3947 37.8784 48.5493 36.9266 48.5493Z" fill="white"/>
</g>
</g>
</g>
<g id="Group_4">
<g id="Group_5">
<g id="Group_6">
<path id="Vector_2" d="M46.4646 48.1686V27.1694H50.7887V35.1838H58.3198V27.1694H62.6232V48.1686H58.3198V39.5597H50.7887V48.1686H46.4646Z" fill="white"/>
</g>
</g>
</g>
<g id="Group_7">
<g id="Group_8">
<g id="Group_9">
<path id="Vector_3" d="M74.2571 48.5493C72.395 48.5493 70.7502 48.0974 69.333 47.1937C67.9106 46.29 66.7933 45.0236 65.9813 43.3886C65.1795 41.7596 64.7812 39.8452 64.7812 37.6573C64.7812 35.4872 65.1795 33.5847 65.9813 31.9497C66.7933 30.3206 67.9106 29.0483 69.333 28.1446C70.7502 27.2409 72.395 26.7891 74.2571 26.7891C76.1295 26.7891 77.7795 27.2409 79.2019 28.1446C80.6192 29.0483 81.7364 30.3206 82.5537 31.9497C83.3657 33.5847 83.7744 35.4872 83.7744 37.6573C83.7744 39.8452 83.3657 41.7596 82.5537 43.3886C81.7364 45.0236 80.6192 46.29 79.2019 47.1937C77.7795 48.0974 76.1295 48.5493 74.2571 48.5493ZM74.2571 44.4588C75.1364 44.4588 75.9537 44.2091 76.6985 43.6978C77.4537 43.1746 78.0537 42.4136 78.4985 41.4148C78.9537 40.4041 79.1812 39.1496 79.1812 37.6573C79.1812 36.1828 78.9537 34.9462 78.4985 33.9473C78.0537 32.9366 77.4537 32.1756 76.6985 31.6643C75.9537 31.1411 75.1364 30.8795 74.2571 30.8795C73.3726 30.8795 72.5606 31.1411 71.8157 31.6643C71.0709 32.1756 70.4709 32.9366 70.0157 33.9473C69.5709 34.9462 69.3537 36.1828 69.3537 37.6573C69.3537 39.1496 69.5709 40.4041 70.0157 41.4148C70.4709 42.4136 71.0709 43.1746 71.8157 43.6978C72.5606 44.2091 73.3726 44.4588 74.2571 44.4588Z" fill="white"/>
</g>
</g>
</g>
<g id="Group_10">
<g id="Group_11">
<g id="Group_12">
<path id="Vector_4" d="M85.9182 48.1686V27.1694H92.9527C94.5355 27.1694 95.9527 27.3597 97.1941 27.7402C98.4458 28.1088 99.4337 28.7866 100.153 29.7854C100.866 30.7724 101.229 32.1814 101.229 34.0185C101.229 35.8438 100.866 37.2528 100.153 38.2517C99.4337 39.2505 98.4458 39.9402 97.1941 40.3207C95.9527 40.6893 94.5355 40.8677 92.9527 40.8677H90.2424V48.1686H85.9182ZM90.2424 36.7534H93.0975C93.7596 36.7534 94.3596 36.6821 94.8975 36.5394C95.4355 36.3967 95.8596 36.1292 96.1803 35.7308C96.5113 35.3206 96.6768 34.7498 96.6768 34.0185C96.6768 33.2932 96.5113 32.7343 96.1803 32.3538C95.8596 31.9614 95.4355 31.6998 94.8975 31.569C94.3596 31.4263 93.7596 31.355 93.0975 31.355H90.2424V36.7534Z" fill="white"/>
</g>
</g>
</g>
<path id="Vector_5" d="M26.5481 35.9321L110.812 35.9321" stroke="white"/>
<g id="Clip path group">
<mask id="mask0_565_884" style="mask-type:luminance" maskUnits="userSpaceOnUse" x="53" y="21" width="24" height="29">
<g id="ad43662cbc">
<path id="Vector_6" d="M53.3154 21.6929H76.9016V49.0893H53.3154V21.6929Z" fill="white"/>
</g>
</mask>
<g mask="url(#mask0_565_884)">
<g id="Group_13">
<path id="Vector_7" d="M76.8706 34.6122L69.4999 34.8144C67.1827 34.2139 66.1482 32.9951 65.6413 30.284L65.843 21.6929H64.3172L64.5034 30.4386C63.9861 33.0427 62.9465 34.2258 60.6758 34.8144L53.3206 34.6122V35.4803V36.3661L60.6447 36.1343C62.9672 36.7288 64.012 37.9417 64.5241 40.629L64.3172 49.2855H65.843L65.662 40.5636C66.1792 37.9179 67.224 36.7229 69.5309 36.1343L76.8706 36.3661V34.6122Z" fill="white"/>
</g>
</g>
</g>
<g id="Group_14">
<g id="Group_15">
<g id="Group_16">
<path id="Vector_8" d="M23.3328 68.7704L21.2017 66.4636C20.069 67.3554 18.7086 67.7954 17.1259 67.7954C15.8017 67.7954 14.6276 67.4803 13.6086 66.8441C12.5845 66.1961 11.7879 65.2924 11.2086 64.133C10.6397 62.9618 10.3604 61.5884 10.3604 60.0188C10.3604 58.467 10.6397 57.1115 11.2086 55.9521C11.7879 54.7809 12.5845 53.8712 13.6086 53.2172C14.6276 52.5692 15.8017 52.2422 17.1259 52.2422C18.4604 52.2422 19.6397 52.5692 20.6638 53.2172C21.6828 53.8712 22.4845 54.7809 23.0638 55.9521C23.6431 57.1115 23.9328 58.467 23.9328 60.0188C23.9328 60.8928 23.8345 61.7073 23.6431 62.4683C23.4621 63.2174 23.1983 63.8892 22.8569 64.4897L24.9466 66.7728L23.3328 68.7704ZM17.1259 64.8702C17.8707 64.8702 18.5224 64.6443 19.0914 64.1806L16.2776 61.1365L17.9121 59.1626L20.4362 61.8975C20.5035 61.6122 20.55 61.3208 20.581 61.0176C20.6224 60.7025 20.6431 60.3696 20.6431 60.0188C20.6431 58.9605 20.4828 58.0687 20.1672 57.3552C19.8466 56.6418 19.4224 56.1067 18.8845 55.7381C18.3466 55.3576 17.7569 55.1673 17.1259 55.1673C16.5052 55.1673 15.9259 55.3576 15.3879 55.7381C14.85 56.1067 14.4207 56.6418 14.1052 57.3552C13.7845 58.0687 13.6293 58.9605 13.6293 60.0188C13.6293 61.083 13.7845 61.9808 14.1052 62.7061C14.4207 63.4196 14.85 63.9606 15.3879 64.3233C15.9259 64.6919 16.5052 64.8702 17.1259 64.8702Z" fill="white"/>
</g>
</g>
</g>
<g id="Group_17">
<g id="Group_18">
<g id="Group_19">
<path id="Vector_9" d="M31.4445 67.7956C29.3859 67.7956 27.9324 67.2427 27.079 66.1309C26.2359 65.0072 25.8169 63.289 25.8169 60.9703V52.5278H28.8997V61.2557C28.8997 62.0048 28.9617 62.6529 29.0859 63.2058C29.21 63.7468 29.4479 64.1689 29.81 64.4662C30.1824 64.7516 30.7255 64.8943 31.4445 64.8943C32.1583 64.8943 32.6962 64.7516 33.0583 64.4662C33.4152 64.1689 33.6583 63.7468 33.7824 63.2058C33.9065 62.6529 33.9686 62.0048 33.9686 61.2557V52.5278H37.0514V60.9703C37.0514 63.289 36.6169 65.0072 35.7479 66.1309C34.8893 67.2427 33.4565 67.7956 31.4445 67.7956Z" fill="white"/>
</g>
</g>
</g>
<g id="Group_20">
<g id="Group_21">
<g id="Group_22">
<path id="Vector_10" d="M38.7798 67.534V52.5278H48.8143V55.6432H41.8625V58.2592H46.1039V61.3746H41.8625V64.4187H48.8143V67.534H38.7798Z" fill="white"/>
</g>
</g>
</g>
<g id="Group_23">
<g id="Group_24">
<g id="Group_25">
<path id="Vector_11" d="M50.1199 67.534V52.5278H55.8302C56.7819 52.5278 57.6199 52.6408 58.3544 52.8608C59.0992 53.0689 59.6888 53.4553 60.1337 54.0261C60.5733 54.5849 60.7957 55.3816 60.7957 56.428C60.7957 57.1296 60.6561 57.736 60.3819 58.2592C60.1181 58.7824 59.7406 59.2224 59.244 59.5672C59.8492 59.805 60.3457 60.1974 60.7337 60.7325C61.1164 61.2735 61.313 61.9929 61.313 62.8966C61.313 64.0263 61.0906 64.93 60.6509 65.6077C60.2216 66.2736 59.6061 66.7671 58.8095 67.0822C58.0078 67.3854 57.0819 67.534 56.0371 67.534H50.1199ZM53.2026 58.4495H55.913C56.4354 58.4495 56.844 58.3187 57.1337 58.0452C57.4337 57.7598 57.5888 57.3912 57.5888 56.9274C57.5888 56.4518 57.4337 56.0891 57.1337 55.8335C56.844 55.5659 56.4354 55.4292 55.913 55.4292H53.2026V58.4495ZM53.2026 64.5851H56.0578C56.7199 64.5851 57.2164 64.4365 57.5475 64.1333C57.8785 63.8182 58.044 63.396 58.044 62.8728C58.044 62.3497 57.8785 61.9454 57.5475 61.66C57.2164 61.3627 56.7199 61.2081 56.0578 61.2081H53.2026V64.5851Z" fill="white"/>
</g>
</g>
</g>
<g id="Group_26">
<g id="Group_27">
<g id="Group_28">
<path id="Vector_12" d="M62.6138 67.534V52.5278H67.6207C68.7638 52.5278 69.7776 52.6586 70.662 52.9083C71.5569 53.164 72.2603 53.6337 72.7724 54.3115C73.2948 54.9773 73.5586 55.9286 73.5586 57.1653C73.5586 57.736 73.4603 58.3068 73.2689 58.8775C73.0879 59.4364 72.7724 59.9477 72.3172 60.4233C71.8724 60.8871 71.2414 61.2438 70.4138 61.4935L74.2 67.534H70.6207L67.0827 61.874H65.6965V67.534H62.6138ZM65.6965 58.9013H67.7241C68.4534 58.9013 69.0586 58.8002 69.5448 58.5922C70.0414 58.3722 70.2896 57.9144 70.2896 57.2128C70.2896 56.5172 70.0414 56.0594 69.5448 55.8335C69.0586 55.6135 68.4534 55.5005 67.7241 55.5005H65.6965V58.9013Z" fill="white"/>
</g>
</g>
</g>
<g id="Group_29">
<g id="Group_30">
<g id="Group_31">
<path id="Vector_13" d="M74.6353 67.534L79.5801 52.5278H82.9732L87.918 67.534H84.5663L83.7801 64.8705H78.7732L77.987 67.534H74.6353ZM79.6215 61.9929H82.9318L81.2559 56.2853L79.6215 61.9929Z" fill="white"/>
</g>
</g>
</g>
<g id="Group_32">
<g id="Group_33">
<g id="Group_34">
<path id="Vector_14" d="M88.8916 67.534V52.5278H93.1744C94.2502 52.5278 95.2433 52.6586 96.1537 52.9083C97.0744 53.1462 97.8761 53.5623 98.5537 54.145C99.2416 54.7157 99.7795 55.4886 100.167 56.4518C100.55 57.4209 100.747 58.61 100.747 60.019C100.747 61.4638 100.55 62.6707 100.167 63.6339C99.7795 64.5851 99.2416 65.358 98.5537 65.9407C97.8761 66.5114 97.0744 66.9276 96.1537 67.1773C95.2433 67.4151 94.2502 67.534 93.1744 67.534H88.8916ZM91.9744 64.5376H93.2364C93.8002 64.5376 94.3382 64.49 94.8502 64.3949C95.3726 64.2879 95.833 64.0798 96.2364 63.7765C96.6502 63.4614 96.9709 63.0096 97.2088 62.421C97.4416 61.8205 97.5606 61.0179 97.5606 60.019C97.5606 59.0381 97.4416 58.2473 97.2088 57.6409C96.9709 57.0226 96.6502 56.5648 96.2364 56.2615C95.833 55.9643 95.3726 55.7562 94.8502 55.6432C94.3382 55.5362 93.8002 55.4768 93.2364 55.4768H91.9744V64.5376Z" fill="white"/>
</g>
</g>
</g>
<g id="Group_35">
<g id="Group_36">
<g id="Group_37">
<path id="Vector_15" d="M101.539 67.534L106.484 52.5278H109.877L114.822 67.534H111.47L110.684 64.8705H105.677L104.891 67.534H101.539ZM106.525 61.9929H109.835L108.16 56.2853L106.525 61.9929Z" fill="white"/>
</g>
</g>
</g>
<g id="Clip path group_2">
<mask id="mask1_565_884" style="mask-type:luminance" maskUnits="userSpaceOnUse" x="68" y="39" width="78" height="41">
<g id="47ae104990">
<path id="Vector_16" d="M68.9568 39.3154H145.757V79.2122H68.9568V39.3154Z" fill="white"/>
</g>
</mask>
<g mask="url(#mask1_565_884)">
<g id="Group_38">
<g id="Clip path group_3">
<mask id="mask2_565_884" style="mask-type:luminance" maskUnits="userSpaceOnUse" x="68" y="20" width="85" height="70">
<g id="eb4cff66a8">
<path id="Vector_17" d="M68.4189 44.2089L137.015 20.6553L152.434 65.9547L83.8379 89.5135L68.4189 44.2089Z" fill="white"/>
</g>
</mask>
<g mask="url(#mask2_565_884)">
<g id="Group_39">
<g id="Clip path group_4">
<mask id="mask3_565_884" style="mask-type:luminance" maskUnits="userSpaceOnUse" x="68" y="20" width="85" height="70">
<g id="b3c4a13a91">
<path id="Vector_18" d="M83.7757 89.3211L152.372 65.7623L136.948 20.4629L68.3516 44.0165L83.7757 89.3211Z" fill="white"/>
</g>
</mask>
<g mask="url(#mask3_565_884)">
<g id="Group_40">
<path id="Vector_19" d="M106.907 79.0351C92.005 78.9364 77.9775 69.8297 72.2775 55.0243C70.8447 51.3048 70.0481 47.4969 69.8206 43.7202H69.9447C70.1671 47.4398 70.9688 51.1957 72.4016 54.8581C72.7119 55.6581 73.0481 56.4373 73.4102 57.201C75.9912 55.8191 78.6706 54.5827 81.443 53.497C80.6309 50.2606 80.1654 46.967 80.0154 43.6994H80.1085C80.2533 46.9514 80.7292 50.2294 81.5568 53.4502C83.8378 52.5619 86.1757 51.7723 88.5757 51.0918C90.1792 50.6346 91.7878 50.2398 93.3964 49.8917C93.1947 47.8242 93.0706 45.7462 93.0188 43.6735H93.0706C93.1223 45.741 93.2464 47.819 93.4481 49.8814C98.5068 48.8008 103.571 48.2502 108.572 48.2034L108.64 40.6396L108.696 48.2034C113.579 48.167 118.41 48.6034 123.127 49.4813C123.298 47.5592 123.407 45.6008 123.453 43.6163H123.505C123.458 45.6008 123.35 47.5696 123.184 49.4917C126.981 50.2086 130.705 51.206 134.321 52.4788C134.988 49.6112 135.396 46.6242 135.521 43.5955H135.619C135.495 46.6397 135.091 49.6372 134.434 52.5204C136.886 53.3827 139.291 54.3749 141.634 55.4814C143.191 51.7151 144.122 47.6943 144.35 43.5748H144.479C143.677 57.8399 134.76 71.009 120.629 76.5C117.076 77.8818 113.44 78.6766 109.824 78.9364C109.519 78.9675 109.208 78.9935 108.903 79.0091C108.671 79.0299 108.438 79.0351 108.205 79.0351C108.184 79.0299 108.169 79.0299 108.148 79.0299C107.983 79.0299 107.817 79.0351 107.657 79.0351C107.621 79.0351 107.59 79.0299 107.558 79.0299C107.341 79.0351 107.124 79.0351 106.907 79.0351ZM108.014 78.4117C108.107 78.4117 108.2 78.4065 108.293 78.4065L108.334 73.8454C105.996 73.8869 103.695 74.0895 101.44 74.4428C103.462 76.9156 105.712 78.2974 108.008 78.4117H108.014ZM108.914 78.3805C108.971 78.3805 109.027 78.3753 109.084 78.3701C110.652 78.1779 112.234 77.3935 113.781 75.9493C114.329 75.435 114.857 74.8532 115.364 74.209C113.326 73.9597 111.257 73.835 109.157 73.835C109.064 73.835 108.976 73.8402 108.883 73.8402L108.914 78.3805ZM105.252 78.261C103.783 77.5182 102.365 76.2506 101.046 74.5051C99.6188 74.7389 98.2068 75.035 96.8206 75.3831C99.4844 76.9156 102.329 77.8922 105.252 78.261ZM111.779 78.048C113.812 77.6584 115.84 76.9623 117.836 75.9389C118.452 75.622 119.052 75.2792 119.636 74.9155C118.364 74.6454 117.071 74.4272 115.762 74.2558C115.141 75.1077 114.484 75.8662 113.802 76.5103C113.134 77.1493 112.457 77.6584 111.779 78.048ZM101.248 77.9597C99.4947 77.3779 97.7878 76.5727 96.1481 75.5545C95.4964 75.7311 94.8447 75.9181 94.1981 76.1207C96.4792 76.9571 98.8378 77.5753 101.248 77.9597ZM116.088 77.3363C117.593 76.9675 119.093 76.5 120.583 75.9337C121.002 75.7727 121.421 75.6012 121.834 75.4246C121.327 75.2947 120.815 75.1701 120.303 75.0558C119.517 75.5857 118.705 76.0688 117.872 76.5052C117.283 76.8117 116.683 77.087 116.088 77.3363ZM93.4844 75.8506C94.1878 75.622 94.8964 75.409 95.6154 75.2064C93.7223 73.9649 91.9326 72.4272 90.2878 70.6297C88.9999 71.1284 87.743 71.6687 86.5068 72.2505C88.6999 73.6895 91.043 74.8947 93.4844 75.8506ZM122.548 75.1129C125.388 73.8402 127.995 72.2557 130.343 70.4064C129.127 69.9544 127.896 69.5336 126.65 69.1648C124.927 71.2999 122.983 73.1648 120.836 74.6869C121.41 74.822 121.984 74.9623 122.548 75.1129ZM96.2361 75.035C97.7102 74.6506 99.2102 74.3233 100.731 74.0688C99.6137 72.5051 98.574 70.5882 97.6378 68.3596C95.2378 68.9258 92.905 69.6427 90.6447 70.4947C92.3723 72.3025 94.2499 73.8246 96.2361 75.035ZM120.215 74.5467C122.465 73.0557 124.508 71.2064 126.314 69.0661C124.027 68.3959 121.684 67.8764 119.305 67.5076C118.364 69.9232 117.283 72.0583 116.072 73.8142C117.469 74.0012 118.855 74.2454 120.215 74.5467ZM101.098 74.0116C103.462 73.6272 105.877 73.4142 108.334 73.3674L108.396 66.879C106.591 66.957 104.771 67.1128 102.94 67.3673C101.207 67.6063 99.4999 67.9232 97.8292 68.3128C98.8119 70.5674 99.9188 72.4739 101.098 74.0116ZM115.7 73.7674C116.983 72.0479 118.126 69.918 119.114 67.4764C115.757 66.9621 112.317 66.7492 108.826 66.8686L108.872 73.3622C108.965 73.3622 109.058 73.3622 109.146 73.3622C111.371 73.3571 113.553 73.4973 115.7 73.7674ZM86.2585 72.0843C87.5206 71.4973 88.8085 70.9518 90.1223 70.4531C88.193 68.318 86.4654 65.8141 85.0016 62.9829C82.9533 63.814 80.9619 64.7387 79.0275 65.7621C81.1688 68.1933 83.605 70.3077 86.2585 72.0843ZM130.529 70.2609C132.779 68.4687 134.781 66.4375 136.524 64.2244C134.771 63.4088 132.971 62.6712 131.14 62.0114C129.908 64.5621 128.445 66.9206 126.769 69.0193C128.036 69.3934 129.293 69.8037 130.529 70.2609ZM90.4792 70.3232C92.7706 69.4661 95.1343 68.7544 97.5654 68.1933C96.5671 65.7673 95.6878 62.9725 94.974 59.8555C91.6016 60.6192 88.3378 61.6426 85.1981 62.9049C86.7085 65.7258 88.493 68.2141 90.4792 70.3232ZM126.433 68.9206C128.165 66.8375 129.676 64.4894 130.943 61.9439C127.948 60.8789 124.86 60.027 121.695 59.414C121.064 62.2867 120.283 64.9673 119.357 67.3622C121.762 67.731 124.126 68.2557 126.433 68.9206ZM97.7568 68.1518C99.3861 67.7777 101.041 67.4712 102.722 67.2427C104.626 66.9777 106.519 66.8167 108.402 66.744L108.479 58.2451C106.933 58.2659 105.376 58.3438 103.808 58.4789C100.829 58.7334 97.9119 59.1958 95.0723 59.8348C95.8119 62.9569 96.7223 65.7465 97.7568 68.1518ZM119.176 67.3362C120.133 64.9517 120.945 62.2764 121.596 59.3984C117.433 58.5932 113.14 58.1932 108.764 58.2399L108.826 66.7284C112.338 66.6141 115.798 66.8271 119.176 67.3362ZM78.7999 65.492C80.7654 64.4738 82.7878 63.5439 84.8671 62.7231C83.6671 60.3646 82.6481 57.7828 81.8464 55.0035C81.7275 54.5775 81.6137 54.1516 81.505 53.7256C78.7533 54.8217 76.0895 56.0737 73.5343 57.4659C74.9568 60.4166 76.7361 63.1023 78.7999 65.492ZM136.679 64.0322C138.634 61.5127 140.243 58.7542 141.484 55.8399C139.162 54.723 136.783 53.7204 134.357 52.8424C133.617 56.0061 132.562 59.0347 131.233 61.8296C133.084 62.4842 134.9 63.2218 136.679 64.0322ZM85.0637 62.6452C88.2292 61.4036 91.524 60.3958 94.9223 59.6425C94.5912 58.162 94.2912 56.6035 94.0326 54.9827C93.7792 53.3619 93.5723 51.7255 93.4119 50.0788C91.9016 50.4112 90.3912 50.7905 88.8861 51.2164C86.3981 51.9229 83.9775 52.7437 81.6188 53.6788C81.7223 54.0684 81.8257 54.4529 81.9395 54.8425C82.7619 57.6581 83.8171 60.2711 85.0637 62.6452ZM131.036 61.7569C132.402 58.9776 133.483 55.9594 134.243 52.8009C130.643 51.5074 126.94 50.4788 123.158 49.7463C122.858 53.0658 122.377 56.2659 121.726 59.2529C124.912 59.8659 128.021 60.7023 131.036 61.7569ZM95.0206 59.6218C97.8033 59.014 100.648 58.5724 103.56 58.323C105.21 58.1828 106.85 58.1049 108.479 58.0841L108.567 48.3956C103.571 48.432 98.5171 48.9774 93.4688 50.0684C93.624 51.6632 93.8309 53.2476 94.0844 54.8165C94.3533 56.4944 94.6688 58.0997 95.0206 59.6218ZM121.633 59.2373C122.3 56.2555 122.791 53.0554 123.102 49.7359C118.395 48.8268 113.574 48.3644 108.696 48.3956L108.764 58.0789C113.15 58.0425 117.453 58.4425 121.633 59.2373Z" fill="white"/>
</g>
</g>
</g>
</g>
</g>
</g>
</g>
</g>
</g>
<g id="Clip path group_5">
<mask id="mask4_565_884" style="mask-type:luminance" maskUnits="userSpaceOnUse" x="68" y="0" width="78" height="41">
<g id="bd6df738f4">
<path id="Vector_20" d="M68.9568 0H145.757V40.8374H68.9568V0Z" fill="white"/>
</g>
</mask>
<g mask="url(#mask4_565_884)">
<g id="Group_41">
<g id="Clip path group_6">
<mask id="mask5_565_884" style="mask-type:luminance" maskUnits="userSpaceOnUse" x="68" y="-10" width="85" height="71">
<g id="c75f7af5ea">
<path id="Vector_21" d="M83.8171 -9.9917L152.45 14.0269L137.088 60.4156L68.4551 36.3971L83.8171 -9.9917Z" fill="white"/>
</g>
</mask>
<g mask="url(#mask5_565_884)">
<g id="Group_42">
<g id="Clip path group_7">
<mask id="mask6_565_884" style="mask-type:luminance" maskUnits="userSpaceOnUse" x="68" y="-10" width="85" height="71">
<g id="f8415e9e5a">
<path id="Vector_22" d="M83.8171 -9.9917L152.45 14.0269L137.088 60.4156L68.4551 36.3971L83.8171 -9.9917Z" fill="white"/>
</g>
</mask>
<g mask="url(#mask6_565_884)">
<g id="Group_43">
<path id="Vector_23" d="M107.129 0.574597C92.1242 0.696897 78.0138 10.1033 72.2931 25.3695C70.8552 29.2033 70.0535 33.1276 69.8311 37.0252H69.9552C70.1724 33.186 70.9742 29.315 72.4121 25.5397C72.7276 24.7155 73.0638 23.9125 73.4259 23.1256C76.0276 24.5453 78.7276 25.8109 81.5207 26.9328C80.7086 30.2668 80.2431 33.6593 80.0983 37.0305H80.1914C80.3311 33.6752 80.8069 30.2987 81.6397 26.9807C83.9311 27.8899 86.2897 28.7035 88.7052 29.4001C90.3242 29.868 91.938 30.2721 93.5569 30.6284C93.3604 32.7607 93.2414 34.9036 93.1897 37.0358H93.2414C93.2931 34.9089 93.4173 32.766 93.6138 30.639C98.7086 31.7504 103.803 32.3034 108.841 32.3459L108.924 40.1412L108.971 32.3459C113.885 32.3778 118.752 31.9258 123.495 31.0112C123.671 32.9893 123.785 35.0099 123.831 37.0571H123.883C123.836 35.0099 123.722 32.984 123.552 31.0006C127.374 30.2562 131.124 29.2246 134.766 27.9059C135.443 30.8624 135.857 33.9358 135.986 37.0624H136.085C135.95 33.9252 135.547 30.8358 134.879 27.8634C137.347 26.97 139.767 25.9491 142.126 24.8005C143.693 28.6822 144.64 32.8245 144.872 37.0677H145.002C144.179 22.3652 135.185 8.80589 120.945 3.16948C117.366 1.74974 113.703 0.936178 110.062 0.67031C109.752 0.638405 109.447 0.617136 109.136 0.601184C108.903 0.579914 108.666 0.56928 108.433 0.574597C108.412 0.574597 108.391 0.579914 108.376 0.579914C108.21 0.579914 108.045 0.574597 107.879 0.574597C107.848 0.574597 107.812 0.579914 107.781 0.579914C107.564 0.574597 107.347 0.574597 107.129 0.574597ZM108.236 1.218C108.335 1.218 108.428 1.218 108.521 1.22332L108.572 5.92387C106.214 5.88134 103.897 5.67928 101.626 5.31769C103.659 2.76004 105.919 1.33498 108.236 1.218ZM109.147 1.24459C109.203 1.2499 109.26 1.25522 109.317 1.25522C110.9 1.45196 112.493 2.2602 114.05 3.74907C114.603 4.27549 115.136 4.87635 115.648 5.54102C113.6 5.79626 111.516 5.92919 109.4 5.92919C109.307 5.92919 109.214 5.92919 109.121 5.92387L109.147 1.24459ZM105.459 1.37752C103.985 2.14322 102.557 3.4513 101.233 5.25389C99.7948 5.0146 98.3724 4.71151 96.9759 4.34993C99.6552 2.77067 102.521 1.75505 105.459 1.37752ZM112.033 1.5849C114.081 1.9837 116.124 2.69623 118.131 3.74907C118.752 4.07343 119.357 4.42969 119.952 4.80191C118.664 5.08373 117.36 5.31238 116.047 5.48785C115.421 4.61048 114.759 3.83415 114.071 3.16416C113.398 2.51012 112.716 1.98902 112.033 1.5849ZM101.429 1.69125C99.6655 2.29211 97.9431 3.12162 96.2983 4.17446C95.6414 3.99367 94.9845 3.80224 94.338 3.59486C96.6293 2.73345 99.0035 2.09005 101.429 1.69125ZM116.372 2.31338C117.888 2.69091 119.403 3.16948 120.898 3.75439C121.322 3.91922 121.747 4.0947 122.16 4.27549C121.648 4.40842 121.136 4.53604 120.619 4.65834C119.828 4.11597 119.01 3.61613 118.167 3.16948C117.572 2.85043 116.972 2.56861 116.372 2.31338ZM93.6138 3.87669C94.3224 4.11065 95.0414 4.32866 95.7604 4.53604C93.8569 5.82284 92.0569 7.4021 90.4017 9.25787C89.1086 8.75272 87.8414 8.19439 86.5948 7.59885C88.8035 6.10998 91.1569 4.8604 93.6138 3.87669ZM122.879 4.59453C125.745 5.90261 128.367 7.53504 130.736 9.43334C129.516 9.90659 128.274 10.3373 127.017 10.7201C125.279 8.52407 123.319 6.6045 121.157 5.03587C121.736 4.89762 122.31 4.75405 122.879 4.59453ZM96.3862 4.71151C96.3862 4.71151 96.3862 4.71151 96.3914 4.71151C97.8707 5.11032 99.3811 5.43999 100.912 5.70054C99.7897 7.31703 98.7448 9.28977 97.8086 11.5922C95.3931 11.0126 93.0397 10.2788 90.7638 9.40144C92.5017 7.53504 94.3897 5.96109 96.3862 4.71151ZM120.531 5.18476C122.802 6.71616 124.86 8.61978 126.681 10.8265C124.374 11.5178 122.021 12.0548 119.621 12.443C118.674 9.94913 117.583 7.75305 116.357 5.94514C117.769 5.7484 119.16 5.49317 120.531 5.18476ZM101.285 5.76435C103.664 6.15252 106.095 6.37053 108.572 6.41307L108.64 13.097C106.824 13.0279 104.993 12.863 103.147 12.6078C101.403 12.3632 99.6862 12.0389 98 11.64C98.988 9.31636 100.095 7.34361 101.285 5.76435ZM115.99 5.98768C117.278 7.76368 118.431 9.95976 119.435 12.4749C116.052 13.0066 112.591 13.2299 109.074 13.113L109.116 6.41839C109.209 6.41839 109.297 6.41839 109.39 6.41839C111.624 6.42371 113.828 6.27482 115.99 5.98768ZM86.3414 7.769C87.6138 8.37518 88.9121 8.92819 90.2362 9.44397C88.2966 11.6454 86.5638 14.2296 85.0897 17.1488C83.0311 16.2981 81.0242 15.3409 79.0742 14.2934C81.2259 11.7836 83.6724 9.59818 86.3414 7.769ZM130.922 9.58223C133.188 11.4274 135.21 13.5171 136.969 15.7982C135.2 16.6437 133.39 17.4041 131.548 18.0847C130.302 15.4579 128.828 13.0332 127.136 10.8743C128.414 10.4862 129.676 10.0608 130.922 9.58223ZM90.5983 9.57691C92.9052 10.4543 95.2845 11.1881 97.7362 11.7624C96.7328 14.2668 95.8535 17.1435 95.1345 20.3605C91.7414 19.5736 88.4569 18.526 85.2914 17.2286C86.8069 14.32 88.5966 11.757 90.5983 9.57691ZM126.8 10.9754C128.548 13.113 130.069 15.5324 131.352 18.1591C128.336 19.2598 125.228 20.1372 122.041 20.7753C121.4 17.8188 120.609 15.0591 119.678 12.5865C122.098 12.2037 124.478 11.6613 126.8 10.9754ZM97.9276 11.8049C99.5673 12.1877 101.233 12.5015 102.929 12.7354C104.848 13.0066 106.752 13.1715 108.645 13.2406L108.738 22.0036C107.176 21.9823 105.609 21.9026 104.031 21.7643C101.036 21.5038 98.0983 21.0358 95.238 20.3818C95.9776 17.1595 96.888 14.2881 97.9276 11.8049ZM119.491 12.6184C120.459 15.0698 121.281 17.8295 121.943 20.7966C117.753 21.6261 113.429 22.0461 109.028 22.0036L109.074 13.2565C112.607 13.3682 116.093 13.1449 119.491 12.6184ZM78.8466 14.5699C80.8224 15.6174 82.8604 16.5693 84.9552 17.42C83.75 19.8501 82.7259 22.5088 81.9293 25.3748C81.8052 25.8162 81.6914 26.2522 81.5828 26.6935C78.8104 25.5662 76.1311 24.2794 73.5552 22.8491C74.9828 19.8075 76.7724 17.0372 78.8466 14.5699ZM137.119 15.995C139.095 18.5899 140.719 21.4293 141.971 24.4336C139.638 25.5875 137.243 26.6244 134.802 27.5337C134.047 24.2688 132.986 21.1528 131.641 18.2761C133.503 17.5955 135.335 16.8351 137.119 15.995ZM85.1517 17.4945C88.3483 18.776 91.6638 19.8075 95.088 20.5786C94.7517 22.1046 94.4517 23.7105 94.1983 25.3855C93.9397 27.0498 93.7328 28.7407 93.5776 30.4316C92.0569 30.0967 90.5362 29.7085 89.0155 29.2725C86.5121 28.5493 84.0707 27.7038 81.7017 26.7414C81.8 26.3426 81.9086 25.9438 82.0173 25.545C82.8448 22.6364 83.9 19.9458 85.1517 17.4945ZM131.445 18.3506C132.826 21.2113 133.917 24.3167 134.688 27.5709C131.062 28.9162 127.333 29.9797 123.526 30.7401C123.221 27.3157 122.729 24.0242 122.072 20.9401C125.279 20.3074 128.409 19.4406 131.445 18.3506ZM95.1862 20.5998C97.9845 21.222 100.85 21.6686 103.783 21.9238C105.443 22.0674 107.093 22.1472 108.733 22.1631L108.836 32.1545C103.809 32.1226 98.719 31.5642 93.6293 30.4423C93.7897 28.8045 93.9914 27.1721 94.2448 25.5503C94.5138 23.8222 94.8293 22.1684 95.1862 20.5998ZM121.974 20.9614C122.652 24.0295 123.153 27.3263 123.469 30.7507C118.731 31.6919 113.879 32.1757 108.966 32.1545L109.028 22.1684C113.44 22.2004 117.774 21.7856 121.979 20.9614H121.974Z" fill="white"/>
</g>
</g>
</g>
</g>
</g>
</g>
</g>
</g>
</g>
<g id="Group_44">
<g id="Group_45">
<g id="Group_46">
<path id="Vector_24" d="M0 47.8289V36.1997H3.33103C4.15862 36.1997 4.92414 36.2948 5.62759 36.4851C6.34138 36.6753 6.96207 37.0023 7.48966 37.4601C8.02759 37.906 8.44655 38.5006 8.75172 39.2438C9.05172 39.9929 9.2069 40.9204 9.2069 42.0262C9.2069 43.138 9.05172 44.0655 8.75172 44.8087C8.44655 45.5399 8.02759 46.1345 7.48966 46.5923C6.96207 47.0382 6.34138 47.3533 5.62759 47.5436C4.92414 47.7338 4.15862 47.8289 3.33103 47.8289H0ZM2.4 45.5221H3.37241C3.81207 45.5221 4.23103 45.4864 4.63448 45.4032C5.03276 45.3081 5.38965 45.1416 5.71034 44.9038C6.02586 44.666 6.27414 44.3211 6.45517 43.8574C6.63103 43.3996 6.72414 42.7872 6.72414 42.0262C6.72414 41.2533 6.63103 40.635 6.45517 40.1712C6.27414 39.6956 6.02586 39.3389 5.71034 39.1011C5.38965 38.8633 5.03276 38.7087 4.63448 38.6254C4.23103 38.5303 3.81207 38.4827 3.37241 38.4827H2.4V45.5221Z" fill="white"/>
</g>
</g>
</g>
<g id="Group_47">
<g id="Group_48">
<g id="Group_49">
<path id="Vector_25" d="M10.3867 47.8289V36.1997H18.166V38.6254H12.7867V40.6469H16.0764V43.0488H12.7867V45.4032H18.166V47.8289H10.3867Z" fill="white"/>
</g>
</g>
</g>
</g>
</svg>
