<svg width="32" height="32" viewBox="0 0 32 32" fill="none" xmlns="http://www.w3.org/2000/svg">
<g id="icons8-card&#195;&#161;pio 1">
<path id="Vector" d="M25.5 23C26.052 23 26.5 23.4475 26.5 24C26.5 24.5525 26.052 25 25.5 25C25.1995 25 6.8005 25 6.5 25C5.948 25 5.5 24.5525 5.5 24C5.5 23.4475 5.948 23 6.5 23C6.8005 23 25.1995 23 25.5 23Z" fill="black"/>
<path id="Vector_2" d="M25.5 15C26.052 15 26.5 15.4475 26.5 16C26.5 16.5525 26.052 17 25.5 17C25.1995 17 6.8005 17 6.5 17C5.948 17 5.5 16.5525 5.5 16C5.5 15.4475 5.948 15 6.5 15C6.8005 15 25.1995 15 25.5 15Z" fill="black"/>
<path id="Vector_3" d="M25.5 7C26.052 7 26.5 7.4475 26.5 8C26.5 8.5525 26.052 9 25.5 9C25.1995 9 6.8005 9 6.5 9C5.948 9 5.5 8.5525 5.5 8C5.5 7.4475 5.948 7 6.5 7C6.8005 7 25.1995 7 25.5 7Z" fill="black"/>
</g>
</svg>
