<svg width="146" height="81" viewBox="0 0 146 81" fill="none" xmlns="http://www.w3.org/2000/svg">
<g id="Group 5">
<g id="Group">
<g id="Group_2">
<g id="Group_3">
<path id="Vector" d="M36.9266 49.4199C34.9404 49.4199 33.2646 48.9561 31.8991 48.0168C30.5439 47.0833 29.587 45.7753 29.0232 44.0928L32.9542 42.4756C33.2128 43.4745 33.6991 44.2236 34.4025 44.7111C35.106 45.1867 35.9542 45.4246 36.9473 45.4246C37.4853 45.4246 37.9922 45.3651 38.4784 45.2343C38.9749 45.0916 39.3887 44.8657 39.7197 44.5446C40.0508 44.2117 40.2163 43.7717 40.2163 43.2129C40.2163 42.4875 39.906 41.9227 39.2853 41.5244C38.6646 41.1141 37.8577 40.799 36.8646 40.5731L34.6508 40.0737C33.668 39.8537 32.7525 39.5029 31.8991 39.0273C31.056 38.5517 30.3784 37.9274 29.8715 37.1485C29.3594 36.3578 29.106 35.3649 29.106 34.1758C29.106 33.0343 29.3335 32.0593 29.7887 31.2507C30.2439 30.4302 30.8491 29.7525 31.6094 29.2293C32.3646 28.7061 33.2025 28.3196 34.1128 28.064C35.0232 27.7964 35.9335 27.6597 36.8439 27.6597C37.837 27.6597 38.7887 27.8202 39.6991 28.1353C40.6197 28.4564 41.4473 28.9439 42.1818 29.6098C42.9111 30.2638 43.4697 31.1318 43.8577 32.2257L39.9473 33.8429C39.6991 33.1473 39.2697 32.6062 38.6646 32.2257C38.0542 31.8452 37.3249 31.655 36.4715 31.655C35.6284 31.655 34.9249 31.8333 34.3611 32.1782C33.8077 32.529 33.5335 33.0284 33.5335 33.6764C33.5335 34.1996 33.7249 34.6515 34.1128 35.032C34.4956 35.4006 35.0025 35.6503 35.6232 35.793L38.0853 36.3637C38.8301 36.5421 39.5801 36.7621 40.3404 37.0296C41.1111 37.2853 41.8197 37.6242 42.4715 38.0522C43.118 38.4803 43.6404 39.0511 44.0439 39.7645C44.4422 40.478 44.6439 41.3817 44.6439 42.4756C44.6439 43.5874 44.4163 44.5803 43.9611 45.4483C43.5163 46.3045 42.9266 47.0358 42.1818 47.6362C41.4473 48.2248 40.6301 48.6707 39.7197 48.968C38.8094 49.2653 37.8784 49.4199 36.9266 49.4199Z" fill="black"/>
</g>
</g>
</g>
<g id="Group_4">
<g id="Group_5">
<g id="Group_6">
<path id="Vector_2" d="M46.4646 49.0392V28.04H50.7887V36.0545H58.3198V28.04H62.6232V49.0392H58.3198V40.4303H50.7887V49.0392H46.4646Z" fill="black"/>
</g>
</g>
</g>
<g id="Group_7">
<g id="Group_8">
<g id="Group_9">
<path id="Vector_3" d="M74.2571 49.4199C72.395 49.4199 70.7502 48.968 69.333 48.0643C67.9106 47.1606 66.7933 45.8942 65.9813 44.2593C65.1795 42.6302 64.7812 40.7158 64.7812 38.5279C64.7812 36.3578 65.1795 34.4553 65.9813 32.8203C66.7933 31.1912 67.9106 29.9189 69.333 29.0152C70.7502 28.1115 72.395 27.6597 74.2571 27.6597C76.1295 27.6597 77.7795 28.1115 79.2019 29.0152C80.6192 29.9189 81.7364 31.1912 82.5537 32.8203C83.3657 34.4553 83.7744 36.3578 83.7744 38.5279C83.7744 40.7158 83.3657 42.6302 82.5537 44.2593C81.7364 45.8942 80.6192 47.1606 79.2019 48.0643C77.7795 48.968 76.1295 49.4199 74.2571 49.4199ZM74.2571 45.3294C75.1364 45.3294 75.9537 45.0797 76.6985 44.5684C77.4537 44.0452 78.0537 43.2842 78.4985 42.2854C78.9537 41.2747 79.1812 40.0202 79.1812 38.5279C79.1812 37.0534 78.9537 35.8168 78.4985 34.8179C78.0537 33.8072 77.4537 33.0462 76.6985 32.5349C75.9537 32.0117 75.1364 31.7501 74.2571 31.7501C73.3726 31.7501 72.5606 32.0117 71.8157 32.5349C71.0709 33.0462 70.4709 33.8072 70.0157 34.8179C69.5709 35.8168 69.3537 37.0534 69.3537 38.5279C69.3537 40.0202 69.5709 41.2747 70.0157 42.2854C70.4709 43.2842 71.0709 44.0452 71.8157 44.5684C72.5606 45.0797 73.3726 45.3294 74.2571 45.3294Z" fill="black"/>
</g>
</g>
</g>
<g id="Group_10">
<g id="Group_11">
<g id="Group_12">
<path id="Vector_4" d="M85.9182 49.0392V28.04H92.9527C94.5355 28.04 95.9527 28.2303 97.1941 28.6108C98.4458 28.9794 99.4337 29.6572 100.153 30.656C100.866 31.643 101.229 33.052 101.229 34.8892C101.229 36.7144 100.866 38.1235 100.153 39.1223C99.4337 40.1211 98.4458 40.8108 97.1941 41.1913C95.9527 41.5599 94.5355 41.7383 92.9527 41.7383H90.2424V49.0392H85.9182ZM90.2424 37.624H93.0975C93.7596 37.624 94.3596 37.5527 94.8975 37.41C95.4355 37.2673 95.8596 36.9998 96.1803 36.6014C96.5113 36.1912 96.6768 35.6204 96.6768 34.8892C96.6768 34.1638 96.5113 33.6049 96.1803 33.2244C95.8596 32.832 95.4355 32.5704 94.8975 32.4396C94.3596 32.297 93.7596 32.2256 93.0975 32.2256H90.2424V37.624Z" fill="black"/>
</g>
</g>
</g>
<path id="Vector_5" d="M26.5481 36.8027L110.812 36.8027" stroke="white"/>
<g id="Clip path group">
<mask id="mask0_422_2107" style="mask-type:luminance" maskUnits="userSpaceOnUse" x="53" y="22" width="24" height="28">
<g id="ad43662cbc">
<path id="Vector_6" d="M53.3154 22.5635H76.9016V49.9599H53.3154V22.5635Z" fill="white"/>
</g>
</mask>
<g mask="url(#mask0_422_2107)">
<g id="Group_13">
<path id="Vector_7" d="M76.8706 35.4829L69.4999 35.685C67.1827 35.0845 66.1482 33.8657 65.6413 31.1546L65.843 22.5635H64.3172L64.5034 31.3092C63.9861 33.9133 62.9465 35.0964 60.6758 35.685L53.3206 35.4829V36.3509V37.2367L60.6447 37.0049C62.9672 37.5994 64.012 38.8123 64.5241 41.4996L64.3172 50.1561H65.843L65.662 41.4342C66.1792 38.7885 67.224 37.5935 69.5309 37.0049L76.8706 37.2367V35.4829Z" fill="white"/>
</g>
</g>
</g>
<g id="Group_14">
<g id="Group_15">
<g id="Group_16">
<path id="Vector_8" d="M23.3328 69.641L21.2017 67.3342C20.069 68.226 18.7086 68.666 17.1259 68.666C15.8017 68.666 14.6276 68.3509 13.6086 67.7147C12.5845 67.0667 11.7879 66.163 11.2086 65.0036C10.6397 63.8324 10.3604 62.459 10.3604 60.8894C10.3604 59.3376 10.6397 57.9821 11.2086 56.8227C11.7879 55.6515 12.5845 54.7418 13.6086 54.0878C14.6276 53.4398 15.8017 53.1128 17.1259 53.1128C18.4604 53.1128 19.6397 53.4398 20.6638 54.0878C21.6828 54.7418 22.4845 55.6515 23.0638 56.8227C23.6431 57.9821 23.9328 59.3376 23.9328 60.8894C23.9328 61.7634 23.8345 62.5779 23.6431 63.3389C23.4621 64.088 23.1983 64.7599 22.8569 65.3603L24.9466 67.6434L23.3328 69.641ZM17.1259 65.7408C17.8707 65.7408 18.5224 65.5149 19.0914 65.0512L16.2776 62.0071L17.9121 60.0333L20.4362 62.7681C20.5035 62.4828 20.55 62.1914 20.581 61.8882C20.6224 61.5731 20.6431 61.2402 20.6431 60.8894C20.6431 59.8311 20.4828 58.9393 20.1672 58.2258C19.8466 57.5124 19.4224 56.9773 18.8845 56.6087C18.3466 56.2282 17.7569 56.0379 17.1259 56.0379C16.5052 56.0379 15.9259 56.2282 15.3879 56.6087C14.85 56.9773 14.4207 57.5124 14.1052 58.2258C13.7845 58.9393 13.6293 59.8311 13.6293 60.8894C13.6293 61.9536 13.7845 62.8514 14.1052 63.5767C14.4207 64.2902 14.85 64.8312 15.3879 65.1939C15.9259 65.5625 16.5052 65.7408 17.1259 65.7408Z" fill="black"/>
</g>
</g>
</g>
<g id="Group_17">
<g id="Group_18">
<g id="Group_19">
<path id="Vector_9" d="M31.4444 68.6663C29.3857 68.6663 27.9323 68.1133 27.0788 67.0015C26.2357 65.8779 25.8168 64.1596 25.8168 61.8409V53.3984H28.8995V62.1263C28.8995 62.8754 28.9616 63.5235 29.0857 64.0764C29.2099 64.6174 29.4478 65.0395 29.8099 65.3368C30.1823 65.6222 30.7254 65.7649 31.4444 65.7649C32.1582 65.7649 32.6961 65.6222 33.0582 65.3368C33.415 65.0395 33.6582 64.6174 33.7823 64.0764C33.9064 63.5235 33.9685 62.8754 33.9685 62.1263V53.3984H37.0513V61.8409C37.0513 64.1596 36.6168 65.8779 35.7478 67.0015C34.8892 68.1133 33.4564 68.6663 31.4444 68.6663Z" fill="black"/>
</g>
</g>
</g>
<g id="Group_20">
<g id="Group_21">
<g id="Group_22">
<path id="Vector_10" d="M38.7798 68.4047V53.3984H48.8143V56.5138H41.8625V59.1298H46.1039V62.2452H41.8625V65.2893H48.8143V68.4047H38.7798Z" fill="black"/>
</g>
</g>
</g>
<g id="Group_23">
<g id="Group_24">
<g id="Group_25">
<path id="Vector_11" d="M50.1199 68.4047V53.3984H55.8302C56.7819 53.3984 57.6199 53.5114 58.3544 53.7314C59.0992 53.9395 59.6888 54.3259 60.1337 54.8967C60.5733 55.4556 60.7957 56.2522 60.7957 57.2986C60.7957 58.0002 60.6561 58.6066 60.3819 59.1298C60.1181 59.653 59.7406 60.093 59.244 60.4378C59.8492 60.6756 60.3457 61.068 60.7337 61.6031C61.1164 62.1441 61.313 62.8635 61.313 63.7672C61.313 64.8969 61.0906 65.8006 60.6509 66.4783C60.2216 67.1442 59.6061 67.6377 58.8095 67.9528C58.0078 68.256 57.0819 68.4047 56.0371 68.4047H50.1199ZM53.2026 59.3201H55.913C56.4354 59.3201 56.844 59.1893 57.1337 58.9158C57.4337 58.6304 57.5888 58.2618 57.5888 57.798C57.5888 57.3224 57.4337 56.9597 57.1337 56.7041C56.844 56.4365 56.4354 56.2998 55.913 56.2998H53.2026V59.3201ZM53.2026 65.4557H56.0578C56.7199 65.4557 57.2164 65.3071 57.5475 65.0039C57.8785 64.6888 58.044 64.2666 58.044 63.7435C58.044 63.2203 57.8785 62.816 57.5475 62.5306C57.2164 62.2333 56.7199 62.0787 56.0578 62.0787H53.2026V65.4557Z" fill="black"/>
</g>
</g>
</g>
<g id="Group_26">
<g id="Group_27">
<g id="Group_28">
<path id="Vector_12" d="M62.6138 68.4047V53.3984H67.6207C68.7638 53.3984 69.7776 53.5292 70.662 53.7789C71.5569 54.0346 72.2603 54.5043 72.7724 55.1821C73.2948 55.8479 73.5586 56.7992 73.5586 58.0359C73.5586 58.6066 73.4603 59.1774 73.2689 59.7481C73.0879 60.307 72.7724 60.8183 72.3172 61.2939C71.8724 61.7577 71.2414 62.1144 70.4138 62.3641L74.2 68.4047H70.6207L67.0827 62.7446H65.6965V68.4047H62.6138ZM65.6965 59.7719H67.7241C68.4534 59.7719 69.0586 59.6708 69.5448 59.4628C70.0414 59.2428 70.2896 58.785 70.2896 58.0834C70.2896 57.3878 70.0414 56.93 69.5448 56.7041C69.0586 56.4841 68.4534 56.3711 67.7241 56.3711H65.6965V59.7719Z" fill="black"/>
</g>
</g>
</g>
<g id="Group_29">
<g id="Group_30">
<g id="Group_31">
<path id="Vector_13" d="M74.6353 68.4047L79.5801 53.3984H82.9732L87.918 68.4047H84.5663L83.7801 65.7411H78.7732L77.987 68.4047H74.6353ZM79.6215 62.8635H82.9318L81.2559 57.1559L79.6215 62.8635Z" fill="black"/>
</g>
</g>
</g>
<g id="Group_32">
<g id="Group_33">
<g id="Group_34">
<path id="Vector_14" d="M88.8917 68.4047V53.3984H93.1745C94.2503 53.3984 95.2434 53.5292 96.1538 53.7789C97.0745 54.0168 97.8762 54.4329 98.5538 55.0156C99.2417 55.5863 99.7797 56.3593 100.168 57.3224C100.55 58.2915 100.747 59.4806 100.747 60.8897C100.747 62.3344 100.55 63.5413 100.168 64.5045C99.7797 65.4557 99.2417 66.2286 98.5538 66.8113C97.8762 67.382 97.0745 67.7982 96.1538 68.0479C95.2434 68.2857 94.2503 68.4047 93.1745 68.4047H88.8917ZM91.9745 65.4082H93.2366C93.8003 65.4082 94.3383 65.3606 94.8503 65.2655C95.3728 65.1585 95.8331 64.9504 96.2366 64.6472C96.6503 64.332 96.971 63.8802 97.209 63.2916C97.4417 62.6911 97.5607 61.8885 97.5607 60.8897C97.5607 59.9087 97.4417 59.1179 97.209 58.5115C96.971 57.8932 96.6503 57.4354 96.2366 57.1322C95.8331 56.8349 95.3728 56.6268 94.8503 56.5138C94.3383 56.4068 93.8003 56.3474 93.2366 56.3474H91.9745V65.4082Z" fill="black"/>
</g>
</g>
</g>
<g id="Group_35">
<g id="Group_36">
<g id="Group_37">
<path id="Vector_15" d="M101.539 68.4047L106.484 53.3984H109.877L114.822 68.4047H111.47L110.684 65.7411H105.677L104.891 68.4047H101.539ZM106.525 62.8635H109.835L108.16 57.1559L106.525 62.8635Z" fill="black"/>
</g>
</g>
</g>
<g id="Clip path group_2">
<mask id="mask1_422_2107" style="mask-type:luminance" maskUnits="userSpaceOnUse" x="68" y="40" width="78" height="41">
<g id="47ae104990">
<path id="Vector_16" d="M68.9568 40.186H145.757V80.0828H68.9568V40.186Z" fill="white"/>
</g>
</mask>
<g mask="url(#mask1_422_2107)">
<g id="Group_38">
<g id="Clip path group_3">
<mask id="mask2_422_2107" style="mask-type:luminance" maskUnits="userSpaceOnUse" x="68" y="21" width="85" height="70">
<g id="eb4cff66a8">
<path id="Vector_17" d="M68.4189 45.0795L137.015 21.5259L152.434 66.8253L83.8379 90.3841L68.4189 45.0795Z" fill="white"/>
</g>
</mask>
<g mask="url(#mask2_422_2107)">
<g id="Group_39">
<g id="Clip path group_4">
<mask id="mask3_422_2107" style="mask-type:luminance" maskUnits="userSpaceOnUse" x="68" y="21" width="85" height="70">
<g id="b3c4a13a91">
<path id="Vector_18" d="M83.7758 90.1917L152.372 66.6329L136.948 21.3335L68.3517 44.8871L83.7758 90.1917Z" fill="white"/>
</g>
</mask>
<g mask="url(#mask3_422_2107)">
<g id="Group_40">
<path id="Vector_19" d="M106.907 79.9057C92.0052 79.807 77.9776 70.7003 72.2776 55.8949C70.8448 52.1754 70.0483 48.3675 69.8207 44.5908H69.9448C70.1672 48.3104 70.969 52.0663 72.4017 55.7287C72.7121 56.5287 73.0483 57.3079 73.4103 58.0716C75.9914 56.6897 78.6707 55.4533 81.4431 54.3676C80.631 51.1312 80.1655 47.8376 80.0155 44.57H80.1086C80.2534 47.822 80.7293 51.1 81.5569 54.3208C83.8379 53.4325 86.1759 52.6429 88.5759 51.9624C90.1793 51.5052 91.7879 51.1104 93.3965 50.7623C93.1948 48.6948 93.0707 46.6168 93.019 44.5441H93.0707C93.1224 46.6116 93.2465 48.6896 93.4483 50.752C98.5069 49.6714 103.571 49.1208 108.572 49.074L108.64 41.5103L108.697 49.074C113.579 49.0376 118.41 49.474 123.128 50.352C123.298 48.4298 123.407 46.4714 123.453 44.4869H123.505C123.459 46.4714 123.35 48.4402 123.184 50.3623C126.981 51.0792 130.705 52.0767 134.321 53.3494C134.988 50.4818 135.397 47.4948 135.521 44.4661H135.619C135.495 47.5103 135.091 50.5078 134.434 53.391C136.886 54.2533 139.291 55.2455 141.634 56.352C143.191 52.5858 144.122 48.5649 144.35 44.4454H144.479C143.678 58.7105 134.76 71.8796 120.629 77.3706C117.076 78.7524 113.44 79.5472 109.824 79.807C109.519 79.8381 109.209 79.8641 108.903 79.8797C108.671 79.9005 108.438 79.9057 108.205 79.9057C108.184 79.9005 108.169 79.9005 108.148 79.9005C107.983 79.9005 107.817 79.9057 107.657 79.9057C107.621 79.9057 107.59 79.9005 107.559 79.9005C107.341 79.9057 107.124 79.9057 106.907 79.9057ZM108.014 79.2823C108.107 79.2823 108.2 79.2771 108.293 79.2771L108.334 74.716C105.997 74.7575 103.695 74.9601 101.44 75.3134C103.462 77.7862 105.712 79.168 108.009 79.2823H108.014ZM108.914 79.2511C108.971 79.2511 109.028 79.2459 109.084 79.2407C110.652 79.0485 112.234 78.2641 113.781 76.8199C114.329 76.3056 114.857 75.7238 115.364 75.0796C113.326 74.8303 111.257 74.7056 109.157 74.7056C109.064 74.7056 108.976 74.7108 108.883 74.7108L108.914 79.2511ZM105.252 79.1316C103.783 78.3888 102.366 77.1212 101.047 75.3757C99.619 75.6095 98.2069 75.9056 96.8207 76.2537C99.4845 77.7862 102.329 78.7628 105.252 79.1316ZM111.779 78.9186C113.812 78.529 115.84 77.8329 117.836 76.8095C118.452 76.4926 119.052 76.1498 119.636 75.7861C118.364 75.516 117.071 75.2978 115.762 75.1264C115.141 75.9783 114.484 76.7368 113.802 77.381C113.134 78.0199 112.457 78.529 111.779 78.9186ZM101.248 78.8303C99.4948 78.2485 97.7879 77.4433 96.1483 76.4251C95.4965 76.6017 94.8448 76.7887 94.1983 76.9913C96.4793 77.8277 98.8379 78.4459 101.248 78.8303ZM116.088 78.2069C117.593 77.8381 119.093 77.3706 120.583 76.8043C121.002 76.6433 121.421 76.4718 121.834 76.2952C121.328 76.1654 120.816 76.0407 120.303 75.9264C119.517 76.4563 118.705 76.9394 117.872 77.3758C117.283 77.6823 116.683 77.9576 116.088 78.2069ZM93.4845 76.7212C94.1879 76.4926 94.8965 76.2796 95.6155 76.077C93.7224 74.8355 91.9327 73.2978 90.2879 71.5003C89 71.9991 87.7431 72.5393 86.5069 73.1211C88.7 74.5601 91.0431 75.7653 93.4845 76.7212ZM122.548 75.9835C125.388 74.7108 127.995 73.1263 130.343 71.277C129.128 70.825 127.897 70.4042 126.65 70.0354C124.928 72.1705 122.983 74.0354 120.836 75.5575C121.41 75.6926 121.984 75.8329 122.548 75.9835ZM96.2362 75.9056C97.7103 75.5212 99.2103 75.1939 100.731 74.9394C99.6138 73.3757 98.5741 71.4588 97.6379 69.2302C95.2379 69.7964 92.9052 70.5133 90.6448 71.3653C92.3724 73.1731 94.25 74.6952 96.2362 75.9056ZM120.216 75.4173C122.466 73.9264 124.509 72.077 126.314 69.9367C124.028 69.2665 121.684 68.7471 119.305 68.3782C118.364 70.7938 117.283 72.9289 116.072 74.6848C117.469 74.8718 118.855 75.116 120.216 75.4173ZM101.098 74.8822C103.462 74.4978 105.878 74.2848 108.334 74.238L108.397 67.7496C106.591 67.8276 104.771 67.9834 102.94 68.238C101.207 68.4769 99.5 68.7938 97.8293 69.1834C98.8121 71.438 99.919 73.3445 101.098 74.8822ZM115.7 74.6381C116.983 72.9185 118.126 70.7886 119.114 68.347C115.757 67.8328 112.317 67.6198 108.826 67.7392L108.872 74.2329C108.966 74.2329 109.059 74.2329 109.147 74.2329C111.371 74.2277 113.553 74.3679 115.7 74.6381ZM86.2586 72.9549C87.5207 72.3679 88.8086 71.8224 90.1224 71.3237C88.1931 69.1886 86.4655 66.6847 85.0017 63.8535C82.9534 64.6846 80.9621 65.6093 79.0276 66.6327C81.169 69.0639 83.6052 71.1783 86.2586 72.9549ZM130.529 71.1315C132.779 69.3393 134.781 67.3081 136.524 65.095C134.771 64.2794 132.971 63.5418 131.14 62.882C129.909 65.4327 128.445 67.7912 126.769 69.8899C128.036 70.264 129.293 70.6744 130.529 71.1315ZM90.4793 71.1938C92.7707 70.3367 95.1345 69.625 97.5655 69.0639C96.5672 66.6379 95.6879 63.8431 94.9741 60.7261C91.6017 61.4898 88.3379 62.5132 85.1983 63.7755C86.7086 66.5964 88.4931 69.0847 90.4793 71.1938ZM126.433 69.7912C128.166 67.7081 129.676 65.36 130.943 62.8145C127.948 61.7495 124.86 60.8976 121.695 60.2846C121.064 63.1574 120.283 65.8379 119.357 68.2328C121.762 68.6016 124.126 69.1263 126.433 69.7912ZM97.7569 69.0224C99.3862 68.6483 101.041 68.3419 102.722 68.1133C104.626 67.8483 106.519 67.6873 108.402 67.6146L108.479 59.1157C106.933 59.1365 105.376 59.2144 103.809 59.3495C100.829 59.604 97.9121 60.0664 95.0724 60.7054C95.8121 63.8275 96.7224 66.6171 97.7569 69.0224ZM119.176 68.2068C120.133 65.8223 120.945 63.147 121.597 60.269C117.433 59.4638 113.14 59.0638 108.764 59.1105L108.826 67.599C112.338 67.4847 115.798 67.6977 119.176 68.2068ZM78.8 66.3626C80.7655 65.3444 82.7879 64.4145 84.8672 63.5937C83.6672 61.2352 82.6483 58.6534 81.8465 55.8741C81.7276 55.4481 81.6138 55.0222 81.5052 54.5962C78.7534 55.6923 76.0896 56.9443 73.5345 58.3365C74.9569 61.2872 76.7362 63.9729 78.8 66.3626ZM136.679 64.9028C138.634 62.3833 140.243 59.6248 141.484 56.7105C139.162 55.5936 136.783 54.591 134.357 53.713C133.617 56.8767 132.562 59.9054 131.233 62.7002C133.084 63.3548 134.9 64.0924 136.679 64.9028ZM85.0638 63.5158C88.2293 62.2742 91.5241 61.2664 94.9224 60.5132C94.5914 59.0326 94.2914 57.4741 94.0327 55.8533C93.7793 54.2325 93.5724 52.5961 93.4121 50.9494C91.9017 51.2818 90.3914 51.6611 88.8862 52.087C86.3983 52.7936 83.9776 53.6143 81.619 54.5494C81.7224 54.939 81.8259 55.3235 81.9396 55.7131C82.7621 58.5287 83.8172 61.1417 85.0638 63.5158ZM131.036 62.6275C132.402 59.8482 133.483 56.83 134.243 53.6715C130.643 52.378 126.94 51.3494 123.159 50.6169C122.859 53.9364 122.378 57.1365 121.726 60.1235C124.912 60.7365 128.021 61.5729 131.036 62.6275ZM95.0207 60.4924C97.8034 59.8846 100.648 59.443 103.56 59.1937C105.21 59.0534 106.85 58.9755 108.479 58.9547L108.567 49.2662C103.571 49.3026 98.5172 49.848 93.469 50.939C93.6241 52.5338 93.831 54.1182 94.0845 55.6871C94.3534 57.3651 94.669 58.9703 95.0207 60.4924ZM121.633 60.108C122.3 57.1261 122.791 53.926 123.102 50.6065C118.395 49.6974 113.574 49.2351 108.697 49.2662L108.764 58.9495C113.15 58.9131 117.453 59.3131 121.633 60.108Z" fill="black"/>
</g>
</g>
</g>
</g>
</g>
</g>
</g>
</g>
</g>
<g id="Clip path group_5">
<mask id="mask4_422_2107" style="mask-type:luminance" maskUnits="userSpaceOnUse" x="68" y="0" width="78" height="42">
<g id="bd6df738f4">
<path id="Vector_20" d="M68.9568 0.870605H145.757V41.708H68.9568V0.870605Z" fill="white"/>
</g>
</mask>
<g mask="url(#mask4_422_2107)">
<g id="Group_41">
<g id="Clip path group_6">
<mask id="mask5_422_2107" style="mask-type:luminance" maskUnits="userSpaceOnUse" x="68" y="-10" width="85" height="72">
<g id="c75f7af5ea">
<path id="Vector_21" d="M83.8171 -9.12109L152.45 14.8975L137.088 61.2862L68.4551 37.2677L83.8171 -9.12109Z" fill="white"/>
</g>
</mask>
<g mask="url(#mask5_422_2107)">
<g id="Group_42">
<g id="Clip path group_7">
<mask id="mask6_422_2107" style="mask-type:luminance" maskUnits="userSpaceOnUse" x="68" y="-10" width="85" height="72">
<g id="f8415e9e5a">
<path id="Vector_22" d="M83.8171 -9.12109L152.45 14.8975L137.088 61.2862L68.4551 37.2677L83.8171 -9.12109Z" fill="white"/>
</g>
</mask>
<g mask="url(#mask6_422_2107)">
<g id="Group_43">
<path id="Vector_23" d="M107.129 1.4452C92.124 1.5675 78.0137 10.9739 72.293 26.2401C70.8551 30.0739 70.0533 33.9982 69.8309 37.8958H69.9551C70.1723 34.0566 70.974 30.1856 72.412 26.4103C72.7275 25.5861 73.0637 24.7832 73.4258 23.9962C76.0275 25.4159 78.7275 26.6815 81.5206 27.8034C80.7085 31.1374 80.243 34.5299 80.0982 37.9011H80.1913C80.3309 34.5458 80.8068 31.1693 81.6396 27.8513C83.9309 28.7605 86.2896 29.5741 88.7051 30.2707C90.324 30.7386 91.9378 31.1427 93.5568 31.499C93.3602 33.6313 93.2413 35.7742 93.1896 37.9064H93.2413C93.293 35.7795 93.4171 33.6366 93.6137 31.5096C98.7085 32.621 103.803 33.174 108.841 33.2165L108.924 41.0118L108.971 33.2165C113.884 33.2484 118.752 32.7964 123.495 31.8818C123.671 33.8599 123.784 35.8805 123.831 37.9277H123.883C123.836 35.8805 123.722 33.8546 123.552 31.8712C127.374 31.1268 131.124 30.0952 134.765 28.7765C135.443 31.733 135.857 34.8064 135.986 37.933H136.084C135.95 34.7958 135.546 31.7064 134.879 28.734C137.346 27.8406 139.767 26.8197 142.126 25.6712C143.693 29.5528 144.64 33.6951 144.872 37.9383H145.002C144.179 23.2358 135.184 9.6765 120.945 4.04008C117.365 2.62034 113.703 1.80678 110.062 1.54092C109.752 1.50901 109.446 1.48774 109.136 1.47179C108.903 1.45052 108.665 1.43989 108.433 1.4452C108.412 1.4452 108.391 1.45052 108.376 1.45052C108.21 1.45052 108.045 1.4452 107.879 1.4452C107.848 1.4452 107.812 1.45052 107.781 1.45052C107.564 1.4452 107.346 1.4452 107.129 1.4452ZM108.236 2.0886C108.334 2.0886 108.427 2.0886 108.521 2.09392L108.572 6.79448C106.214 6.75194 103.896 6.54988 101.626 6.1883C103.659 3.63064 105.919 2.20559 108.236 2.0886ZM109.146 2.11519C109.203 2.12051 109.26 2.12583 109.317 2.12583C110.9 2.32257 112.493 3.13081 114.05 4.61967C114.603 5.14609 115.136 5.74696 115.648 6.41163C113.6 6.66686 111.515 6.7998 109.4 6.7998C109.307 6.7998 109.214 6.7998 109.121 6.79448L109.146 2.11519ZM105.459 2.24813C103.984 3.01383 102.557 4.3219 101.233 6.12449C99.7947 5.88521 98.3723 5.58212 96.9758 5.22054C99.6551 3.64128 102.521 2.62566 105.459 2.24813ZM112.033 2.4555C114.081 2.85431 116.124 3.56683 118.131 4.61967C118.752 4.94403 119.357 5.3003 119.952 5.67251C118.664 5.95433 117.36 6.18298 116.046 6.35846C115.421 5.48109 114.759 4.70475 114.071 4.03476C113.398 3.38073 112.715 2.85963 112.033 2.4555ZM101.429 2.56185C99.6654 3.16271 97.943 3.99222 96.2982 5.04506C95.6413 4.86427 94.9844 4.67285 94.3378 4.46547C96.6292 3.60406 99.0033 2.96065 101.429 2.56185ZM116.372 3.18398C117.888 3.56152 119.403 4.04008 120.898 4.62499C121.322 4.78983 121.746 4.9653 122.16 5.14609C121.648 5.27903 121.136 5.40665 120.619 5.52894C119.827 4.98657 119.01 4.48674 118.167 4.04008C117.572 3.72104 116.972 3.43922 116.372 3.18398ZM93.6137 4.74729C94.3223 4.98126 95.0413 5.19927 95.7602 5.40665C93.8568 6.69345 92.0568 8.27271 90.4016 10.1285C89.1085 9.62332 87.8413 9.065 86.5947 8.46945C88.8033 6.98059 91.1568 5.731 93.6137 4.74729ZM122.879 5.46514C125.745 6.77321 128.367 8.40564 130.736 10.3039C129.515 10.7772 128.274 11.2079 127.017 11.5907C125.279 9.39467 123.319 7.4751 121.157 5.90648C121.736 5.76823 122.31 5.62466 122.879 5.46514ZM96.3861 5.58212C96.3861 5.58212 96.3861 5.58212 96.3913 5.58212C97.8706 5.98092 99.3809 6.3106 100.912 6.57115C99.7896 8.18763 98.7447 10.1604 97.8085 12.4628C95.393 11.8832 93.0396 11.1494 90.7637 10.272C92.5016 8.40564 94.3896 6.8317 96.3861 5.58212ZM120.531 6.05536C122.802 7.58677 124.86 9.49039 126.681 11.6971C124.374 12.3884 122.021 12.9254 119.621 13.3136C118.674 10.8197 117.583 8.62365 116.357 6.81575C117.769 6.61901 119.16 6.36377 120.531 6.05536ZM101.284 6.63496C103.664 7.02313 106.095 7.24114 108.572 7.28368L108.64 13.9676C106.824 13.8985 104.993 13.7337 103.146 13.4784C101.403 13.2338 99.6861 12.9095 97.9999 12.5107C98.9878 10.187 100.095 8.21422 101.284 6.63496ZM115.99 6.85829C117.277 8.63429 118.431 10.8304 119.434 13.3455C116.052 13.8772 112.591 14.1006 109.074 13.9836L109.115 7.28899C109.209 7.28899 109.296 7.28899 109.39 7.28899C111.624 7.29431 113.827 7.14543 115.99 6.85829ZM86.3413 8.63961C87.6137 9.24579 88.912 9.79879 90.2361 10.3146C88.2965 12.516 86.5637 15.1002 85.0896 18.0195C83.0309 17.1687 81.024 16.2115 79.074 15.164C81.2258 12.6542 83.6723 10.4688 86.3413 8.63961ZM130.922 10.4528C133.188 12.298 135.21 14.3877 136.969 16.6688C135.2 17.5143 133.39 18.2747 131.548 18.9553C130.302 16.3285 128.827 13.9038 127.136 11.745C128.414 11.3568 129.676 10.9314 130.922 10.4528ZM90.5982 10.4475C92.9051 11.3249 95.2844 12.0587 97.7361 12.633C96.7327 15.1374 95.8533 18.0141 95.1344 21.2311C91.7413 20.4442 88.4568 19.3967 85.2913 18.0992C86.8068 15.1906 88.5964 12.6276 90.5982 10.4475ZM126.8 11.846C128.548 13.9836 130.069 16.403 131.352 19.0298C128.336 20.1305 125.227 21.0078 122.041 21.6459C121.4 18.6894 120.609 15.9297 119.677 13.4571C122.098 13.0743 124.477 12.5319 126.8 11.846ZM97.9275 12.6755C99.5671 13.0583 101.233 13.3721 102.929 13.606C104.848 13.8772 106.752 14.0421 108.645 14.1112L108.738 22.8742C107.176 22.8529 105.609 22.7732 104.031 22.6349C101.036 22.3744 98.0982 21.9065 95.2378 21.2524C95.9775 18.0301 96.8878 15.1587 97.9275 12.6755ZM119.491 13.4891C120.459 15.9404 121.281 18.7001 121.943 21.6672C117.753 22.4967 113.429 22.9168 109.027 22.8742L109.074 14.1271C112.607 14.2388 116.093 14.0155 119.491 13.4891ZM78.8464 15.4405C80.8223 16.4881 82.8602 17.4399 84.9551 18.2906C83.7499 20.7207 82.7258 23.3794 81.9292 26.2454C81.8051 26.6868 81.6913 27.1228 81.5827 27.5641C78.8102 26.4369 76.1309 25.1501 73.5551 23.7197C74.9827 20.6781 76.7723 17.9078 78.8464 15.4405ZM137.119 16.8656C139.095 19.4605 140.719 22.2999 141.971 25.3043C139.638 26.4581 137.243 27.495 134.802 28.4043C134.046 25.1394 132.986 22.0234 131.641 19.1467C133.503 18.4661 135.334 17.7057 137.119 16.8656ZM85.1516 18.3651C88.3482 19.6466 91.6637 20.6781 95.0878 21.4492C94.7516 22.9752 94.4516 24.5811 94.1982 26.2561C93.9396 27.9204 93.7327 29.6113 93.5775 31.3023C92.0568 30.9673 90.5361 30.5791 89.0154 30.1431C86.512 29.4199 84.0706 28.5744 81.7016 27.612C81.7999 27.2132 81.9085 26.8144 82.0171 26.4156C82.8447 23.507 83.8999 20.8164 85.1516 18.3651ZM131.445 19.2212C132.826 22.0819 133.917 25.1873 134.688 28.4415C131.062 29.7868 127.333 30.8503 123.526 31.6107C123.221 28.1863 122.729 24.8948 122.072 21.8107C125.279 21.178 128.409 20.3112 131.445 19.2212ZM95.1861 21.4704C97.9844 22.0926 100.85 22.5392 103.783 22.7945C105.443 22.938 107.093 23.0178 108.733 23.0337L108.836 33.0251C103.809 32.9932 98.7189 32.4349 93.6292 31.3129C93.7896 29.6751 93.9913 28.0427 94.2447 26.4209C94.5137 24.6928 94.8292 23.0391 95.1861 21.4704ZM121.974 21.832C122.652 24.9001 123.153 28.1969 123.469 31.6213C118.731 32.5625 113.879 33.0463 108.965 33.0251L109.027 23.0391C113.44 23.071 117.774 22.6562 121.979 21.832H121.974Z" fill="black"/>
</g>
</g>
</g>
</g>
</g>
</g>
</g>
</g>
</g>
<g id="Group_44">
<g id="Group_45">
<g id="Group_46">
<path id="Vector_24" d="M0 48.6995V37.0703H3.33103C4.15862 37.0703 4.92414 37.1654 5.62759 37.3557C6.34138 37.5459 6.96207 37.8729 7.48966 38.3307C8.02759 38.7766 8.44655 39.3712 8.75172 40.1144C9.05172 40.8635 9.2069 41.791 9.2069 42.8968C9.2069 44.0086 9.05172 44.9361 8.75172 45.6793C8.44655 46.4106 8.02759 47.0051 7.48966 47.4629C6.96207 47.9088 6.34138 48.2239 5.62759 48.4142C4.92414 48.6044 4.15862 48.6995 3.33103 48.6995H0ZM2.4 46.3927H3.37241C3.81207 46.3927 4.23103 46.357 4.63448 46.2738C5.03276 46.1787 5.38965 46.0122 5.71034 45.7744C6.02586 45.5366 6.27414 45.1917 6.45517 44.728C6.63103 44.2702 6.72414 43.6578 6.72414 42.8968C6.72414 42.1239 6.63103 41.5056 6.45517 41.0418C6.27414 40.5662 6.02586 40.2095 5.71034 39.9717C5.38965 39.7339 5.03276 39.5793 4.63448 39.496C4.23103 39.4009 3.81207 39.3534 3.37241 39.3534H2.4V46.3927Z" fill="black"/>
</g>
</g>
</g>
<g id="Group_47">
<g id="Group_48">
<g id="Group_49">
<path id="Vector_25" d="M10.3868 48.6995V37.0703H18.1662V39.496H12.7868V41.5175H16.0765V43.9194H12.7868V46.2738H18.1662V48.6995H10.3868Z" fill="black"/>
</g>
</g>
</g>
</g>
</svg>
