<svg width="22" height="22" viewBox="0 0 22 22" fill="none" xmlns="http://www.w3.org/2000/svg">
<g id="material-symbols:perm-phone-msg-rounded">
<path id="Vector" d="M11.7792 11.0916C11.6264 11.2444 11.4583 11.2826 11.275 11.2062C11.0917 11.1298 11 10.9847 11 10.7708V3.62077C11 3.36105 11.088 3.14319 11.264 2.96719C11.44 2.79119 11.6576 2.70349 11.9167 2.7041H18.3333C18.5931 2.7041 18.8109 2.7921 18.9869 2.9681C19.1629 3.1441 19.2506 3.36166 19.25 3.62077V8.2041C19.25 8.46383 19.162 8.68169 18.986 8.85769C18.81 9.03369 18.5924 9.12138 18.3333 9.12077H13.75L11.7792 11.0916ZM18.2875 19.2499C16.3167 19.2499 14.3956 18.8105 12.5244 17.9318C10.6532 17.053 8.99556 15.8919 7.5515 14.4484C6.10744 13.005 4.94633 11.3474 4.06817 9.47552C3.19 7.60369 2.75061 5.68266 2.75 3.71244C2.75 3.43744 2.84167 3.20827 3.025 3.02494C3.20833 2.8416 3.4375 2.74994 3.7125 2.74994H7.425C7.63889 2.74994 7.82986 2.81869 7.99792 2.95619C8.16597 3.09369 8.26528 3.26938 8.29583 3.48327L8.89167 6.6916C8.92222 6.90549 8.91825 7.10044 8.87975 7.27644C8.84125 7.45244 8.75356 7.60888 8.61667 7.74577L6.41667 9.9916C7.05833 11.0916 7.86042 12.1229 8.82292 13.0854C9.78542 14.0479 10.8472 14.8805 12.0083 15.5833L14.1625 13.4291C14.3 13.2916 14.4797 13.1886 14.7015 13.1202C14.9233 13.0517 15.1409 13.0325 15.3542 13.0624L18.5167 13.7041C18.7306 13.7499 18.9062 13.8532 19.0438 14.0139C19.1812 14.1747 19.25 14.3617 19.25 14.5749V18.2874C19.25 18.5624 19.1583 18.7916 18.975 18.9749C18.7917 19.1583 18.5625 19.2499 18.2875 19.2499Z" fill="#2CFFBC"/>
</g>
</svg>
