<svg width="22" height="22" viewBox="0 0 22 22" fill="none" xmlns="http://www.w3.org/2000/svg">
<g id="material-symbols:mail">
<path id="Vector" d="M3.66665 18.3337C3.16248 18.3337 2.73073 18.154 2.3714 17.7947C2.01206 17.4353 1.8327 17.0039 1.83331 16.5003V5.50033C1.83331 4.99616 2.01298 4.56441 2.37231 4.20508C2.73165 3.84574 3.16309 3.66638 3.66665 3.66699H18.3333C18.8375 3.66699 19.2692 3.84666 19.6286 4.20599C19.9879 4.56533 20.1673 4.99677 20.1666 5.50033V16.5003C20.1666 17.0045 19.987 17.4362 19.6276 17.7956C19.2683 18.1549 18.8369 18.3343 18.3333 18.3337H3.66665ZM11 11.917L18.3333 7.33366V5.50033L11 10.0837L3.66665 5.50033V7.33366L11 11.917Z" fill="#2CFFBC"/>
</g>
</svg>
